<?xml version="1.0" encoding="iso-8859-1"?>
<!-- Generator: Adobe Illustrator 19.0.0, SVG Export Plug-In . SVG Version: 6.00 Build 0)  -->
<svg version="1.1" id="Layer_1" xmlns="http://www.w3.org/2000/svg" xmlns:xlink="http://www.w3.org/1999/xlink" x="0px" y="0px"
	 viewBox="0 0 512 512" style="enable-background:new 0 0 512 512;" xml:space="preserve">
<g>
	<g>
		<path d="M466.271,21.333L256,21.354L45.729,21.333C20.521,21.333,0,41.979,0,67.375c0,6.938,1.583,13.667,4.688,20
			c34.083,69.958,91.25,169.167,141.688,256.708c26.354,45.75,51.25,88.958,69.25,121.792c8.521,15.521,23.604,24.792,40.396,24.792
			c16.771,0,31.854-9.271,40.375-24.792c17.979-32.813,42.854-76,69.188-121.708c50.458-87.563,107.625-186.812,141.729-256.75
			C510.417,81.062,512,74.312,512,67.375C512,41.979,491.479,21.333,466.271,21.333z M488.146,78.042
			c-33.792,69.313-90.771,168.208-141.042,255.479c-26.396,45.813-51.313,89.083-69.417,122.104
			c-9.438,17.188-33.958,17.146-43.354,0c-18.104-33.042-43.063-76.354-69.479-122.188c-50.25-87.229-107.229-186.104-141-255.396
			c0-0.021,0-0.021,0-0.042c-1.667-3.396-2.521-6.958-2.521-10.625c0-13.625,10.938-24.708,24.396-24.708L256,42.687l210.271-0.021
			c13.458,0,24.396,11.083,24.396,24.708C490.667,71.042,489.813,74.604,488.146,78.042z"/>
	</g>
</g>
<g>
</g>
<g>
</g>
<g>
</g>
<g>
</g>
<g>
</g>
<g>
</g>
<g>
</g>
<g>
</g>
<g>
</g>
<g>
</g>
<g>
</g>
<g>
</g>
<g>
</g>
<g>
</g>
<g>
</g>
</svg>
