<?xml version="1.0" encoding="iso-8859-1"?>
<!-- Generator: Adobe Illustrator 19.0.0, SVG Export Plug-In . SVG Version: 6.00 Build 0)  -->
<svg version="1.1" id="Layer_1" xmlns="http://www.w3.org/2000/svg" xmlns:xlink="http://www.w3.org/1999/xlink" x="0px" y="0px"
	 viewBox="0 0 512 512" style="enable-background:new 0 0 512 512;" xml:space="preserve">
<g>
	<g>
		<path d="M507.333,424.604h-0.01c-34.073-69.917-91.188-169.062-141.594-256.521c-26.396-45.833-51.323-89.104-69.344-121.979
			c-8.5-15.521-23.604-24.771-40.396-24.771c-16.792,0-31.896,9.25-40.396,24.771c-18.01,32.875-42.917,76.104-69.292,121.896
			C95.885,255.5,38.76,354.667,4.667,424.604C1.573,430.979,0,437.708,0,444.604C0,470,20.51,490.667,45.729,490.667L256,490.625
			l210.271,0.042C491.49,490.667,512,470,512,444.604C512,437.708,510.427,430.979,507.333,424.604z M466.271,469.333L256,469.292
			l-210.271,0.042c-13.448,0-24.396-11.083-24.396-24.729c0-3.646,0.844-7.229,2.51-10.667
			c33.76-69.25,90.708-168.083,140.938-255.292c26.438-45.875,51.406-89.229,69.521-122.292c9.396-17.125,33.979-17.125,43.375,0
			c18.125,33.083,43.115,76.458,69.573,122.375c50.219,87.167,107.146,185.979,140.906,255.208c1.667,3.438,2.51,7.021,2.51,10.667
			C490.667,458.25,479.719,469.333,466.271,469.333z"/>
	</g>
</g>
<g>
</g>
<g>
</g>
<g>
</g>
<g>
</g>
<g>
</g>
<g>
</g>
<g>
</g>
<g>
</g>
<g>
</g>
<g>
</g>
<g>
</g>
<g>
</g>
<g>
</g>
<g>
</g>
<g>
</g>
</svg>
