<svg id="Capa_1" enable-background="new 0 0 512 512" height="512" viewBox="0 0 512 512" width="512" xmlns="http://www.w3.org/2000/svg"><g><circle cx="256" cy="256" r="135"/><path d="m372.675 372.675c-5.859 5.859-5.859 15.352 0 21.211l72.422 72.422c5.859 5.859 15.352 5.859 21.211 0s5.859-15.352 0-21.211l-72.422-72.422c-5.86-5.86-15.352-5.86-21.211 0z"/><path d="m66.903 45.692c-5.859-5.859-15.352-5.859-21.211 0s-5.859 15.352 0 21.211l72.422 72.422c5.859 5.859 15.352 5.859 21.211 0s5.859-15.352 0-21.211z"/><path d="m45.692 466.308c5.859 5.859 15.352 5.859 21.211 0l72.422-72.422c5.859-5.859 5.859-15.352 0-21.211s-15.352-5.859-21.211 0l-72.422 72.422c-5.859 5.859-5.859 15.351 0 21.211z"/><path d="m466.308 45.692c-5.859-5.859-15.352-5.859-21.211 0l-72.422 72.422c-5.859 5.859-5.859 15.352 0 21.211s15.352 5.859 21.211 0l72.422-72.422c5.859-5.859 5.859-15.351 0-21.211z"/><path d="m319.135 408.446c-7.646 3.164-11.279 11.953-8.115 19.6l11.484 27.715c3.168 7.657 11.966 11.276 19.6 8.115 7.646-3.164 11.279-11.953 8.115-19.6l-11.484-27.715c-3.165-7.646-11.968-11.264-19.6-8.115z"/><path d="m192.865 103.554c7.646-3.164 11.279-11.953 8.115-19.6l-11.484-27.715c-3.149-7.646-11.997-11.265-19.6-8.115-7.646 3.164-11.279 11.953-8.115 19.6l11.484 27.715c3.168 7.657 11.967 11.275 19.6 8.115z"/><path d="m83.954 311.02-27.715 11.484c-7.646 3.164-11.279 11.953-8.115 19.6 3.168 7.657 11.966 11.276 19.6 8.115l27.715-11.484c7.646-3.164 11.279-11.953 8.115-19.6-3.164-7.661-11.953-11.28-19.6-8.115z"/><path d="m428.046 200.98 27.715-11.484c7.646-3.164 11.279-11.953 8.115-19.6-3.164-7.661-11.953-11.235-19.6-8.115l-27.715 11.484c-7.646 3.164-11.279 11.953-8.115 19.6 3.168 7.658 11.966 11.276 19.6 8.115z"/><path d="m173.266 416.562-11.484 27.715c-3.164 7.646.469 16.436 8.115 19.6 7.628 3.159 16.428-.452 19.6-8.115l11.484-27.715c3.164-7.646-.469-16.436-8.115-19.6s-16.436.468-19.6 8.115z"/><path d="m338.734 95.438 11.484-27.715c3.164-7.646-.469-16.436-8.115-19.6-7.617-3.164-16.436.454-19.6 8.115l-11.483 27.716c-3.164 7.646.469 16.436 8.115 19.6 7.628 3.158 16.428-.453 19.599-8.116z"/><path d="m95.438 173.266-27.715-11.484c-7.603-3.135-16.421.454-19.6 8.115-3.164 7.646.469 16.436 8.115 19.6l27.715 11.484c7.628 3.159 16.428-.452 19.6-8.115 3.165-7.647-.468-16.436-8.115-19.6z"/><path d="m455.761 322.504-27.715-11.484c-7.603-3.179-16.421.454-19.6 8.115-3.164 7.646.469 16.436 8.115 19.6l27.715 11.484c7.628 3.159 16.428-.452 19.6-8.115 3.164-7.647-.469-16.436-8.115-19.6z"/><path d="m241 436v61c0 8.291 6.709 15 15 15s15-6.709 15-15v-61c0-8.291-6.709-15-15-15s-15 6.709-15 15z"/><path d="m271 76v-61c0-8.291-6.709-15-15-15s-15 6.709-15 15v61c0 8.291 6.709 15 15 15s15-6.709 15-15z"/><path d="m0 256c0 8.291 6.709 15 15 15h61c8.291 0 15-6.709 15-15s-6.709-15-15-15h-61c-8.291 0-15 6.709-15 15z"/><path d="m497 241h-61c-8.291 0-15 6.709-15 15s6.709 15 15 15h61c8.291 0 15-6.709 15-15s-6.709-15-15-15z"/></g></svg>