<svg id="bold" enable-background="new 0 0 32 32" height="512" viewBox="0 0 32 32" width="512" xmlns="http://www.w3.org/2000/svg"><path d="m26 32h-20c-3.314 0-6-2.686-6-6v-20c0-3.314 2.686-6 6-6h20c3.314 0 6 2.686 6 6v20c0 3.314-2.686 6-6 6z" fill="#ffe6e2"/><g fill="#fd907e"><path d="m16 10.304c-.276 0-.5-.224-.5-.5v-1.304c0-.276.224-.5.5-.5s.5.224.5.5v1.304c0 .276-.224.5-.5.5z"/><path d="m20.381 12.119c-.128 0-.256-.049-.354-.146-.195-.195-.195-.512 0-.707l.923-.923c.195-.195.512-.195.707 0s.195.512 0 .707l-.923.923c-.097.097-.225.146-.353.146z"/><path d="m23.5 16.5h-1.304c-.276 0-.5-.224-.5-.5s.224-.5.5-.5h1.304c.276 0 .5.224.5.5s-.224.5-.5.5z"/><path d="m21.303 21.803c-.128 0-.256-.049-.354-.146l-.923-.923c-.195-.195-.195-.512 0-.707s.512-.195.707 0l.923.923c.195.195.195.512 0 .707-.097.098-.225.146-.353.146z"/><path d="m10.697 21.803c-.128 0-.256-.049-.354-.146-.195-.195-.195-.512 0-.707l.923-.923c.195-.195.512-.195.707 0s.195.512 0 .707l-.923.923c-.098.098-.225.146-.353.146z"/><path d="m9.804 16.5h-1.304c-.276 0-.5-.224-.5-.5s.224-.5.5-.5h1.304c.276 0 .5.224.5.5s-.224.5-.5.5z"/><path d="m11.619 12.119c-.128 0-.256-.049-.354-.146l-.923-.923c-.195-.195-.195-.512 0-.707s.512-.195.707 0l.923.923c.195.195.195.512 0 .707-.097.097-.225.146-.353.146z"/></g><path d="m18 22v.833c0 .64-.527 1.167-1.167 1.167h-1.667c-.559 0-1.166-.427-1.166-1.36v-.64z" fill="#fc573b"/><path d="m18.94 12.373c-1.093-.887-2.533-1.233-3.94-.933-1.767.367-3.2 1.807-3.567 3.573-.373 1.813.307 3.613 1.76 4.713.393.293.667.747.76 1.273v.007c.014-.006.034-.006.047-.006h4c.013 0 .02 0 .033.007v-.007c.093-.507.393-.973.853-1.333 1.127-.893 1.78-2.227 1.78-3.667.001-1.413-.626-2.733-1.726-3.627zm-.44 3.96c-.273 0-.5-.227-.5-.5 0-1.013-.82-1.833-1.833-1.833-.273 0-.5-.227-.5-.5s.227-.5.5-.5c1.56 0 2.833 1.273 2.833 2.833 0 .274-.227.5-.5.5z" fill="#fc573b"/><path d="m13.953 21h.047c-.013 0-.033 0-.047.007z"/><path d="m18.033 21v.007c-.013-.007-.02-.007-.033-.007z"/></svg>