<svg height="512" viewBox="0 0 128 128" width="512" xmlns="http://www.w3.org/2000/svg" xmlns:xlink="http://www.w3.org/1999/xlink"><linearGradient id="a" gradientUnits="userSpaceOnUse" x1="109.255" x2="18.745" y1="109.252" y2="18.742"><stop offset="0" stop-color="#32d736"/><stop offset="1" stop-color="#fedb41"/></linearGradient><path d="m27.923 74.257a37.461 37.461 0 0 0 1.89 5.168 1.75 1.75 0 1 1 -3.19 1.441 41.014 41.014 0 0 1 -2.067-5.652 1.75 1.75 0 0 1 3.367-.957zm6.677 15.793a1.748 1.748 0 0 0 -.039 2.474 41 41 0 1 0 -11.561-28.524 1.75 1.75 0 0 0 3.5 0 37.5 37.5 0 1 1 10.569 26.089 1.749 1.749 0 0 0 -2.469-.039zm58.9-26.05a1.75 1.75 0 0 0 3.5 0 33.035 33.035 0 0 0 -33-33 1.75 1.75 0 0 0 0 3.5 29.53 29.53 0 0 1 29.5 29.5zm-39.744-46.346c-.042-.585-.069-1.176-.069-1.781 0-8.586 8.894-15.254 9.273-15.533a1.749 1.749 0 0 1 2.08 0c.378.279 9.272 6.947 9.272 15.533 0 .6-.027 1.2-.067 1.779a1.752 1.752 0 0 1 -2.06 1.6 45.171 45.171 0 0 0 -16.37 0 1.75 1.75 0 0 1 -2.059-1.6zm3.44-2.17a48.165 48.165 0 0 1 13.608 0c-.22-5.123-4.721-9.643-6.8-11.47-2.087 1.826-6.588 6.347-6.804 11.47zm17.049 94.858c.04.584.067 1.177.067 1.779 0 8.586-8.894 15.254-9.272 15.533a1.748 1.748 0 0 1 -2.08 0c-.379-.279-9.273-6.947-9.273-15.533 0-.6.027-1.2.069-1.781a1.75 1.75 0 0 1 2.059-1.6 45.127 45.127 0 0 0 16.37 0 1.752 1.752 0 0 1 2.06 1.6zm-3.445 2.168a48.165 48.165 0 0 1 -13.608 0c.22 5.123 4.72 9.643 6.8 11.47 2.09-1.826 6.592-6.347 6.808-11.47zm19.052-85.94a44.855 44.855 0 0 1 11.575 11.575 1.75 1.75 0 0 0 2.879-1.991 49.281 49.281 0 0 0 -5.66-6.8 48.709 48.709 0 0 0 -5.153-4.469c3.779-3.467 10.16-3.484 12.923-3.3a27.149 27.149 0 0 1 -.131 5.051 1.75 1.75 0 1 0 3.473.433 29.7 29.7 0 0 0 -.01-7.347 1.75 1.75 0 0 0 -1.471-1.47c-.465-.069-11.469-1.643-17.543 4.429-.425.426-.825.864-1.209 1.306a1.75 1.75 0 0 0 .327 2.586zm-50.963 76.075a1.752 1.752 0 0 1 -.415 1.366c-.385.443-.785.882-1.212 1.308-3.942 3.942-9.965 4.66-13.831 4.66a26.842 26.842 0 0 1 -3.709-.234 1.749 1.749 0 0 1 -1.47-1.471c-.07-.464-1.644-11.469 4.428-17.541.427-.426.864-.827 1.308-1.211a1.772 1.772 0 0 1 1.365-.414 1.75 1.75 0 0 1 1.22.742 44.913 44.913 0 0 0 11.575 11.574 1.748 1.748 0 0 1 .741 1.221zm-4.382.467a48.816 48.816 0 0 1 -5.153-4.468 48.956 48.956 0 0 1 -4.468-5.155c-3.466 3.778-3.481 10.158-3.3 12.923 2.764.182 9.143.167 12.921-3.3zm93.15-38.075c-.279.378-6.947 9.273-15.533 9.273-.6 0-1.195-.028-1.779-.068a1.751 1.751 0 0 1 -1.6-2.059 44.931 44.931 0 0 0 0-16.372 1.751 1.751 0 0 1 1.6-2.059c.584-.04 1.176-.067 1.779-.067 8.586 0 15.254 8.894 15.533 9.272a1.749 1.749 0 0 1 0 2.08zm-3.674-1.037c-1.826-2.082-6.347-6.584-11.47-6.8a48.067 48.067 0 0 1 0 13.608c5.123-.227 9.643-4.728 11.47-6.808zm-106.328 10.242c-.584.041-1.176.068-1.779.068-8.586 0-15.254-8.895-15.534-9.273a1.752 1.752 0 0 1 0-2.08c.28-.378 6.948-9.272 15.534-9.272.6 0 1.2.026 1.779.067a1.752 1.752 0 0 1 1.6 2.061 44.915 44.915 0 0 0 0 16.369 1.752 1.752 0 0 1 -1.6 2.06zm-2.655-10.242a48.7 48.7 0 0 1 .484-6.8c-5.123.22-9.643 4.721-11.47 6.8 1.826 2.082 6.347 6.584 11.47 6.8a48.7 48.7 0 0 1 -.484-6.8zm90.32 26.733c6.072 6.072 4.5 17.077 4.428 17.541a1.75 1.75 0 0 1 -1.471 1.471 26.9 26.9 0 0 1 -3.708.233c-3.866 0-9.889-.717-13.833-4.661-.426-.425-.826-.864-1.211-1.307a1.75 1.75 0 0 1 .327-2.586 44.872 44.872 0 0 0 11.575-11.574 1.75 1.75 0 0 1 1.219-.742 1.772 1.772 0 0 1 1.367.414c.443.385.881.785 1.307 1.211zm-2.2 2.757a48.028 48.028 0 0 1 -9.622 9.622c3.777 3.466 10.157 3.479 12.922 3.3.18-2.765.161-9.143-3.305-12.922zm-80.44-56.228c-6.072-6.072-4.5-17.077-4.428-17.542a1.749 1.749 0 0 1 1.47-1.471c.465-.071 11.47-1.644 17.541 4.428.427.426.827.864 1.211 1.306a1.75 1.75 0 0 1 -.326 2.587 44.9 44.9 0 0 0 -11.575 11.575 1.752 1.752 0 0 1 -1.22.741 1.787 1.787 0 0 1 -.219.013 1.75 1.75 0 0 1 -1.146-.427c-.444-.384-.881-.784-1.308-1.21zm2.205-2.762a49.033 49.033 0 0 1 4.468-5.153 48.709 48.709 0 0 1 5.153-4.469c-3.779-3.467-10.159-3.484-12.922-3.3-.184 2.769-.165 9.148 3.301 12.922z" fill="url(#a)"/></svg>