<svg id="Capa_1" enable-background="new 0 0 512 512" height="512" viewBox="0 0 512 512" width="512" xmlns="http://www.w3.org/2000/svg"><g><path d="m346.5 0c-91.257 0-165.5 74.243-165.5 165.5 0 40.239 14.441 77.165 38.405 105.882l-21.772 21.772-21.213-21.214-163.261 163.261c-17.546 17.546-17.545 46.094 0 63.64 17.545 17.545 46.094 17.546 63.64 0l163.261-163.261-21.213-21.213 21.772-21.772c28.716 23.964 65.642 38.405 105.881 38.405 91.257 0 165.5-74.243 165.5-165.5s-74.243-165.5-165.5-165.5zm-290.914 477.628c-5.849 5.849-15.365 5.848-21.213 0s-5.849-15.365 0-21.213l10.607-10.607 21.213 21.213zm31.819-31.82-21.213-21.213 110.228-110.228 21.213 21.213zm259.095-144.808c-74.715 0-135.5-60.785-135.5-135.5s60.785-135.5 135.5-135.5 135.5 60.785 135.5 135.5-60.785 135.5-135.5 135.5z"/><path d="m346.5 60c-58.173 0-105.5 47.327-105.5 105.5s47.327 105.5 105.5 105.5 105.5-47.327 105.5-105.5-47.327-105.5-105.5-105.5zm0 181c-41.631 0-75.5-33.869-75.5-75.5s33.869-75.5 75.5-75.5 75.5 33.869 75.5 75.5-33.869 75.5-75.5 75.5z"/></g></svg>