<svg id="Capa_1" enable-background="new 0 0 512 512" height="512" viewBox="0 0 512 512" width="512" xmlns="http://www.w3.org/2000/svg"><g><path d="m198.118 292.658-21.688 21.688 21.213 21.213 21.688-21.688c-7.598-6.522-14.691-13.614-21.213-21.213z"/><circle cx="346.489" cy="165.5" r="75.5"/><path d="m346.489 0c-91.403 0-165.5 74.097-165.5 165.5s74.097 165.5 165.5 165.5 165.5-74.097 165.5-165.5-74.097-165.5-165.5-165.5zm0 271c-58.173 0-105.5-47.327-105.5-105.5s47.327-105.5 105.5-105.5 105.5 47.327 105.5 105.5-47.327 105.5-105.5 105.5z"/><path d="m58.374 345.673h125.885v90h-125.885z" transform="matrix(.707 -.707 .707 .707 -240.715 200.208)"/><path d="m23.776 424.573-10.607 10.607c-17.544 17.545-17.544 46.094 0 63.639 8.5 8.5 19.8 13.181 31.82 13.181s23.321-4.681 31.82-13.181l10.607-10.607z"/></g></svg>