<svg id="Capa_1" enable-background="new 0 0 512 512" height="512" viewBox="0 0 512 512" width="512" xmlns="http://www.w3.org/2000/svg"><g><g><path d="m244.55 259.952h77.009v46.205h-77.009z" fill="#2b4d66" transform="matrix(.707 -.707 .707 .707 -117.245 283.055)"/></g><g><path d="m292.624 292.624h46.205v46.205h-46.205z" fill="#4a80aa" transform="matrix(.707 -.707 .707 .707 -130.779 315.727)"/></g><g><path d="m366.163 301.989h77.009v205.357h-77.009z" fill="#407093" transform="matrix(.707 -.707 .707 .707 -167.619 404.668)"/></g><g><path d="m409.984 283.838h25.67v205.357h-25.67z" fill="#365e7d" transform="matrix(.707 -.707 .707 .707 -149.468 412.186)"/></g><g><circle cx="161.442" cy="161.442" fill="#407093" r="154.018"/></g><g><path d="m254.583 38.781c19.672 25.866 31.357 58.137 31.357 93.141 0 85.062-68.956 154.018-154.018 154.018-35.004 0-67.275-11.685-93.141-31.357 28.131 36.99 72.604 60.877 122.661 60.877 85.062 0 154.018-68.956 154.018-154.018 0-50.058-23.887-94.53-60.877-122.661z" fill="#365e7d"/></g><g><circle cx="161.442" cy="161.442" fill="#e4f6ff" r="112.946"/></g><g><path d="m229.648 71.416c14.381 18.952 22.921 42.581 22.921 68.207 0 62.379-50.568 112.946-112.946 112.946-25.626 0-49.254-8.539-68.207-22.921 20.626 27.181 53.273 44.74 90.026 44.74 62.379 0 112.946-50.568 112.946-112.946 0-36.753-17.558-69.4-44.74-90.026z" fill="#d3effb"/></g><g><path d="m509.802 444.736-89.244-89.233c-2.927-2.927-7.677-2.93-10.608.001-2.929 2.929-2.929 7.679.001 10.608l83.939 83.929-43.85 43.85-134.593-134.604 43.84-43.84 25.91 25.911c2.93 2.928 7.679 2.928 10.609 0 2.929-2.93 2.929-7.679 0-10.609l-31.215-31.215c-2.93-2.928-7.679-2.928-10.609 0l-5.583 5.583-22.063-22.062 5.587-5.587c2.929-2.93 2.929-7.679 0-10.609l-28.464-28.464c33.129-61.222 23.869-139.49-27.801-191.17-62.977-62.968-165.45-62.969-228.431.001-62.967 62.979-62.967 165.452 0 228.431 3.655 3.655 7.528 7.175 11.511 10.463 3.195 2.635 7.923 2.186 10.56-1.01s2.185-7.923-1.01-10.56c-3.618-2.986-7.134-6.182-10.453-9.5-57.12-57.129-57.12-150.086-.001-207.215 57.13-57.12 150.085-57.121 207.215-.001 57.12 57.13 57.12 150.087.001 207.215-44.594 44.588-112.457 55.684-168.871 27.614-3.711-1.847-8.211-.335-10.057 3.375-1.845 3.709-.335 8.211 3.375 10.057 22.9 11.394 47.501 16.933 71.914 16.933 26.743 0 53.245-6.664 76.999-19.556l28.451 28.451c1.465 1.464 3.385 2.197 5.305 2.197 1.919 0 3.839-.733 5.305-2.197l5.587-5.587 22.062 22.063-5.583 5.583c-2.929 2.93-2.929 7.679 0 10.608l145.202 145.212c1.406 1.407 3.315 2.198 5.305 2.198s3.897-.79 5.305-2.197l54.458-54.458c1.406-1.407 2.197-3.315 2.197-5.305s-.794-3.897-2.202-5.304zm-258.185-149.274c8.514-5.739 16.576-12.342 24.041-19.805 7.496-7.497 14.089-15.56 19.8-24.043l20.551 20.551-43.845 43.846zm42.046 20.266 22.064-22.064 22.063 22.062-22.065 22.065z"/><path d="m194.33 61.23c3.938 1.291 8.174-.86 9.461-4.797 1.288-3.938-.859-8.174-4.797-9.461-43.424-14.203-90.446-2.977-122.724 29.298-46.962 46.964-46.962 123.38 0 170.343 22.75 22.749 52.997 35.277 85.172 35.277s62.422-12.528 85.171-35.277 35.277-52.996 35.277-85.171-12.528-62.422-35.277-85.172c-4.499-4.498-9.357-8.649-14.442-12.338-3.352-2.435-8.044-1.689-10.476 1.666-2.433 3.353-1.687 8.043 1.666 10.476 4.447 3.227 8.701 6.862 12.643 10.804 19.916 19.915 30.884 46.396 30.884 74.563s-10.967 54.647-30.884 74.562c-19.915 19.916-46.395 30.884-74.562 30.884s-54.648-10.967-74.563-30.884c-41.114-41.114-41.114-108.011 0-149.125 28.257-28.257 69.434-38.082 107.451-25.648z"/></g></g></svg>