<svg id="Capa_1" enable-background="new 0 0 512 512" height="512" viewBox="0 0 512 512" width="512" xmlns="http://www.w3.org/2000/svg"><g><g><path d="m12.208 44.082h485.967v195.7h-485.967z" fill="#edf6ff"/></g><path d="m256 44.082h242.176v195.7h-242.176z" fill="#d7e9fe"/><path d="m12.208 236.969h485.967v81.279h-485.967z" fill="#ffdd70"/><path d="m256 236.969h242.176v81.279h-242.176z" fill="#f8c045"/><g><g><g><g><path d="m191.974 439.782c-21.598 0-39.17-17.572-39.17-39.17s17.572-39.17 39.17-39.17 21.599 78.34 0 78.34z" fill="#ffdfcf"/><g><path d="m191.974 361.441v78.34c21.598 0 39.17-17.572 39.17-39.17.001-21.598-17.571-39.17-39.17-39.17z" fill="#ffcebf"/></g></g><path d="m191.974 421.413c-35.247 0-64.026 28.676-64.026 63.923v26.296h64.026s35.248-90.219 0-90.219z" fill="#ef6236"/><g><path d="m256 485.336c0-35.247-28.778-63.923-64.026-63.923v90.219h64.026z" fill="#ed3833"/></g></g><g><g><path d="m320.026 439.782c-21.598 0-39.17-17.572-39.17-39.17s17.572-39.17 39.17-39.17 21.598 78.34 0 78.34z" fill="#ffdfcf"/><g><path d="m320.026 361.441v78.34c21.598 0 39.17-17.572 39.17-39.17s-17.572-39.17-39.17-39.17z" fill="#ffcebf"/></g></g><path d="m320.026 421.413c-35.247 0-64.026 28.676-64.026 63.923v26.296h64.026s35.247-90.219 0-90.219z" fill="#ef6236"/><g><path d="m384.051 485.336c0-35.247-28.778-63.923-64.026-63.923v90.219h64.026z" fill="#ed3833"/></g></g><g><g><path d="m448.077 439.782c-21.598 0-39.17-17.572-39.17-39.17s17.572-39.17 39.17-39.17 21.598 78.34 0 78.34z" fill="#ffdfcf"/><g><path d="m448.077 361.441v78.34c21.598 0 39.17-17.572 39.17-39.17s-17.572-39.17-39.17-39.17z" fill="#ffcebf"/></g></g><path d="m448.077 421.413c-35.247 0-64.026 28.676-64.026 63.923v26.296h64.026s35.247-90.219 0-90.219z" fill="#ef6236"/><g><path d="m512 485.336c0-35.247-28.676-63.923-63.923-63.923v90.219h63.923z" fill="#ed3833"/></g></g><g><path d="m63.923 439.782c-21.598 0-39.17-17.572-39.17-39.17s17.572-39.17 39.17-39.17 21.598 78.34 0 78.34z" fill="#ffdfcf"/><g><path d="m63.923 361.441v78.34c21.598 0 39.17-17.572 39.17-39.17s-17.572-39.17-39.17-39.17z" fill="#ffcebf"/></g></g><path d="m63.923 421.413c-35.247 0-63.923 28.675-63.923 63.923v26.296h63.923s35.247-90.219 0-90.219z" fill="#ef6236"/><g><path d="m127.949 485.336c0-35.247-28.778-63.923-64.026-63.923v90.219h64.026z" fill="#ed3833"/></g></g></g><g><path d="m17.289 159.433h-17.289v-159.065h116.07v60.283c0 54.556-44.226 98.782-98.781 98.782z" fill="#ee577b"/><path d="m17.289 159.355h-17.289v158.893h116.07v-60.112c0-54.555-44.226-98.781-98.781-98.781z" fill="#ed3d6d"/></g><g><path d="m494.711 159.433h17.289v-159.065h-116.07v60.283c0 54.556 44.226 98.782 98.781 98.782z" fill="#622a66"/><path d="m494.711 159.355h17.289v158.893h-116.07v-60.112c0-54.555 44.226-98.781 98.781-98.781z" fill="#bd3165"/></g><g><path d="m162.866 87.47c-25.845 0-46.796-20.951-46.796-46.796v-40.306h93.591v40.306c0 25.845-20.951 46.796-46.795 46.796z" fill="#ed3d6d"/><path d="m256 87.47c-25.845 0-46.796-20.951-46.796-46.796v-40.306h93.591v40.306c.001 25.845-20.95 46.796-46.795 46.796z" fill="#bd3165"/><path d="m349.201 87.47c-25.845 0-46.796-20.951-46.796-46.796v-40.306h93.591v40.306c.001 25.845-20.95 46.796-46.795 46.796z" fill="#bd3165"/><g><path d="m256 .368v87.102c25.844 0 46.796-20.951 46.796-46.796v-40.306z" fill="#622a66"/></g></g></g></svg>