<svg id="Capa_1" enable-background="new 0 0 512 512" height="512" viewBox="0 0 512 512" width="512" xmlns="http://www.w3.org/2000/svg"><g><g><path d="m512 317.318v-317.318h-512v317.318zm-429.672-157.611c27.604-16.149 47.758-43.873 53.901-76.54 9.076 5.63 19.768 8.891 31.211 8.891 17.582 0 33.394-7.699 44.27-19.897 10.876 12.198 26.689 19.897 44.271 19.897 17.559 0 33.352-7.692 44.217-19.882 10.866 12.189 26.659 19.882 44.217 19.882 11.498 0 22.236-3.294 31.34-8.973 6.124 32.703 26.289 60.459 53.916 76.622-22.971 13.321-40.783 34.588-49.656 60.013h-248.031c-8.873-25.425-26.684-46.692-49.656-60.013zm399.526 127.465h-77.9v-30.726c0-43.753 34.617-79.574 77.9-81.517zm-77.899-257.026h77.9v114.47c-20.314-.924-39.344-9.447-53.925-24.234-15.46-15.678-23.974-36.371-23.974-58.268v-31.968zm-88.683.176h58.392v2.342c0 16.128-13.121 29.248-29.249 29.248-16.07 0-29.144-13.12-29.144-29.248v-2.342zm-88.488 0h58.342v2.342c0 16.128-13.074 29.248-29.144 29.248-16.1 0-29.198-13.12-29.198-29.248zm-30.146 0v2.342c0 16.128-13.098 29.248-29.197 29.248-16.127 0-29.248-13.12-29.248-29.248v-2.342zm-166.492-.176h77.9v2.518 29.45c0 21.897-8.514 42.59-23.974 58.268-14.582 14.786-33.611 23.309-53.926 24.234zm77.9 257.026h-77.9v-112.243c43.282 1.944 77.9 37.765 77.9 81.517zm30.146 0s-.072-35.128-.199-37.307h236.015c-.127 2.178-.199 37.307-.199 37.307z"/></g><path d="m481.835 420.81c3.086-6.469 4.75-13.609 4.75-20.956 0-26.85-21.845-48.695-48.695-48.695-26.851 0-48.695 21.845-48.695 48.695 0 6.854 1.456 13.555 4.174 19.698-6.437 4.553-12.142 10.074-16.872 16.374-4.426-5.895-9.7-11.114-15.633-15.492 2.973-6.374 4.573-13.384 4.573-20.58 0-26.85-21.845-48.695-48.695-48.695-26.851 0-48.695 21.845-48.695 48.695 0 6.997 1.512 13.832 4.338 20.075-6.238 4.493-11.776 9.901-16.384 16.05-4.546-6.065-9.994-11.411-16.129-15.868 2.877-6.287 4.417-13.184 4.417-20.257 0-26.85-21.845-48.695-48.695-48.695s-48.695 21.845-48.695 48.695c0 7.129 1.567 14.076 4.487 20.403-6.033 4.414-11.394 9.693-15.881 15.669-4.667-6.216-10.283-11.673-16.614-16.191 2.77-6.191 4.251-12.958 4.251-19.881 0-26.85-21.845-48.695-48.695-48.695s-48.695 21.845-48.695 48.695c0 7.27 1.634 14.346 4.665 20.77-18.446 13.733-30.417 35.698-30.417 60.409v30.967h512v-30.967c0-24.599-11.862-46.478-30.165-60.223zm-304.838-20.956c0-10.254 8.343-18.597 18.597-18.597 10.255 0 18.597 8.343 18.597 18.597 0 2.726-.604 5.381-1.723 7.801-5.387-1.228-10.983-1.899-16.736-1.899-5.841 0-11.521.691-16.983 1.956-1.137-2.435-1.752-5.11-1.752-7.858zm-121.148 0c0-10.254 8.343-18.597 18.597-18.597s18.597 8.343 18.597 18.597c0 2.667-.578 5.274-1.654 7.656-5.194-1.137-10.581-1.754-16.111-1.754-6.062 0-11.952.74-17.603 2.099-1.181-2.473-1.826-5.198-1.826-8.001zm-25.751 82.048v-.869c0-24.912 20.267-45.179 45.179-45.179 24.899 0 45.157 20.246 45.178 45.141 0 .013-.001.026-.001.039v.869h-90.356zm210.813 0h-90.357v-.869c0-.013-.001-.026-.001-.039.021-24.894 20.279-45.141 45.178-45.141 24.912 0 45.179 20.267 45.179 45.179v.87zm178.381-82.048c0-10.254 8.343-18.597 18.597-18.597 10.255 0 18.597 8.343 18.597 18.597 0 2.832-.657 5.581-1.858 8.071-5.742-1.407-11.735-2.169-17.905-2.169-5.423 0-10.708.589-15.809 1.684-1.057-2.364-1.622-4.945-1.622-7.586zm-121.148 0c0-10.254 8.343-18.597 18.597-18.597 10.255 0 18.597 8.343 18.597 18.597 0 2.774-.63 5.473-1.788 7.927-5.553-1.31-11.334-2.025-17.282-2.025-5.645 0-11.14.645-16.433 1.828-1.098-2.402-1.691-5.034-1.691-7.73zm-27.054 82.048v-.869c0-24.912 20.267-45.179 45.179-45.179 24.895 0 45.151 20.241 45.178 45.131 0 .016-.001.032-.001.048v.869zm210.812 0h-90.356v-.869c0-.016-.001-.032-.001-.048.026-24.89 20.282-45.131 45.178-45.131 24.912 0 45.179 20.267 45.179 45.179z"/></g></svg>