<svg id="Capa_1" enable-background="new 0 0 512 512" height="512" viewBox="0 0 512 512" width="512" xmlns="http://www.w3.org/2000/svg"><g><g><path d="m451.696 158.891c-41.25-20.019-71.022-59.978-76.794-107.349-9.17 5.85-20.043 9.253-31.705 9.253-17.496 0-33.233-7.665-44.06-19.811-10.827 12.146-26.564 19.811-44.061 19.811-17.52 0-33.276-7.672-44.114-19.827-10.838 12.155-26.594 19.827-44.114 19.827-10.95 0-21.213-2.991-30.019-8.196-6.104 46.86-35.805 86.407-76.755 106.292 33.062 16.055 58.794 44.926 70.693 80.117h250.305c11.868-35.217 37.56-64.072 70.624-80.117z"/><path d="m137.991 306.619h235.883s.24-32.951.708-37.572h-237.302c.47 4.622.711 37.572.711 37.572z"/><path d="m108.991 34.679v-34.679h-108.991v143.669c60.194 0 108.991-48.796 108.991-108.99z"/><path d="m108.991 306.619v-23.517c0-60.194-48.797-108.99-108.991-108.99v132.507z"/><path d="m402.874 34.679c0 60.194 48.932 108.99 109.126 108.99v-143.669h-109.126z"/><path d="m512 306.619v-132.507c-60.194 0-109.126 48.797-109.126 108.99v23.517z"/><path d="m230.147 396.661c2.597-5.481 4.055-11.607 4.055-18.075 0-23.348-18.927-42.275-42.275-42.275s-42.275 18.927-42.275 42.275c0 6.501 1.471 12.657 4.092 18.159 11.716-5.319 24.692-8.282 38.295-8.282 13.531 0 26.441 2.932 38.108 8.198z"/><path d="m358.256 396.745c2.621-5.502 4.092-11.658 4.092-18.159 0-23.348-18.927-42.275-42.275-42.275s-42.275 18.927-42.275 42.275c0 6.468 1.458 12.594 4.055 18.075 11.667-5.266 24.577-8.198 38.108-8.198 13.603 0 26.579 2.962 38.295 8.282z"/><path d="m102.039 396.577c2.572-5.46 4.017-11.556 4.017-17.991 0-23.348-18.927-42.275-42.275-42.275s-42.275 18.927-42.275 42.275c0 6.522 1.479 12.698 4.117 18.213 11.739-5.351 24.775-8.336 38.495-8.336 13.458 0 26.302 2.901 37.921 8.114z"/><path d="m486.378 396.799c2.638-5.516 4.117-11.691 4.117-18.213 0-23.348-18.927-42.275-42.275-42.275s-42.275 18.927-42.275 42.275c0 6.436 1.444 12.531 4.017 17.991 11.618-5.213 24.462-8.114 37.922-8.114 13.719 0 26.755 2.985 38.494 8.336z"/><path d="m447.883 417.463c-33.98 0-61.769 26.438-63.961 59.863-2.192-33.426-29.981-59.863-63.961-59.863-33.98 0-61.769 26.438-63.961 59.863-2.192-33.426-29.981-59.863-63.961-59.863-33.98 0-61.769 26.438-63.961 59.863-2.192-33.426-29.981-59.863-63.961-59.863-35.411 0-64.117 28.706-64.117 64.116v30.421h512v-30.421c0-35.41-28.706-64.116-64.117-64.116z"/></g><path d="m314.155 1.611c0 16.071 13.028 29.144 29.041 29.144 16.071 0 29.145-13.074 29.145-29.144v-1.156h-58.186z"/><path d="m225.98 1.611c0 16.071 13.052 29.144 29.095 29.144 16.014 0 29.041-13.074 29.041-29.144v-1.156h-58.136z"/><path d="m137.991 5.667c1.98 14.157 14.162 25.089 28.856 25.089 16.042 0 29.094-13.074 29.094-29.144v-1.157h-57.951v5.212z"/></g></svg>