<svg height="512" viewBox="0 0 128 128" width="512" xmlns="http://www.w3.org/2000/svg"><g><g fill="#fff16b"><path d="m1.75 70.789v55.461h34.312a121.023 121.023 0 0 0 -13.47-55.461z"/><path d="m1.75 1.833v56.605h21.925a76.128 76.128 0 0 0 12.264-37.489c-22.839-6.516-34.189-19.116-34.189-19.116z"/><path d="m126.25 70.789v55.461h-34.312a121.023 121.023 0 0 1 13.47-55.461z"/><path d="m126.25 1.833v56.6h-21.925a76.121 76.121 0 0 1 -12.264-37.484c22.839-6.516 34.189-19.116 34.189-19.116z"/></g><path d="m64 24.758c-41.625 0-62.25-22.925-62.25-22.925h124.5s-20.625 22.925-62.25 22.925z" fill="#ff7d47"/><path d="m1.75 58.437h24.322a6.176 6.176 0 0 1 6.176 6.176 6.176 6.176 0 0 1 -6.176 6.176h-24.322a0 0 0 0 1 0 0v-12.352a0 0 0 0 1 0 0z" fill="#ff7d47"/><path d="m10.7 44.994a1.873 1.873 0 0 1 -.2-.011 1.75 1.75 0 0 1 -1.544-1.934c.769-6.862 1.231-14.041 1.374-21.334a1.75 1.75 0 0 1 3.5.068c-.145 7.4-.614 14.687-1.395 21.655a1.75 1.75 0 0 1 -1.735 1.556z" fill="#ffd845"/><path d="m21.981 35.851a1.748 1.748 0 0 0 -2.031 1.413 100.167 100.167 0 0 1 -5.919 20.5 1.734 1.734 0 0 0 -.132.669h3.632a104.043 104.043 0 0 0 5.863-20.555 1.75 1.75 0 0 0 -1.413-2.027z" fill="#ffd845"/><path d="m24.884 110.774a1.75 1.75 0 0 1 -1.739-1.575 162.693 162.693 0 0 0 -5.02-26.982 1.75 1.75 0 1 1 3.373-.934 166.065 166.065 0 0 1 5.129 27.566 1.75 1.75 0 0 1 -1.565 1.916c-.062.006-.119.009-.178.009z" fill="#ffd845"/><path d="m7.317 71.1c1.449 8.037 2.583 16.55 3.366 25.3a1.75 1.75 0 0 0 1.741 1.6c.053 0 .105 0 .159-.007a1.751 1.751 0 0 0 1.586-1.9c-.784-8.743-1.914-17.251-3.356-25.3h-3.52a1.736 1.736 0 0 0 .024.307z" fill="#ffd845"/><path d="m95.752 58.437h24.322a6.176 6.176 0 0 1 6.176 6.176 6.176 6.176 0 0 1 -6.176 6.176h-24.322a0 0 0 0 1 0 0v-12.352a0 0 0 0 1 0 0z" fill="#ff7d47" transform="matrix(-1 0 0 -1 222.002 129.226)"/><path d="m117.305 44.994a1.75 1.75 0 0 1 -1.737-1.556c-.781-6.968-1.25-14.254-1.395-21.655a1.749 1.749 0 0 1 1.716-1.783 1.721 1.721 0 0 1 1.783 1.715c.143 7.293.605 14.472 1.374 21.334a1.75 1.75 0 0 1 -1.544 1.934 1.873 1.873 0 0 1 -.197.011z" fill="#ffd845"/><path d="m113.969 57.769a100.167 100.167 0 0 1 -5.919-20.5 1.75 1.75 0 1 0 -3.444.619 104.043 104.043 0 0 0 5.863 20.555h3.631a1.734 1.734 0 0 0 -.131-.674z" fill="#ffd845"/><path d="m103.116 110.774c-.059 0-.118 0-.178-.009a1.75 1.75 0 0 1 -1.565-1.916 166.065 166.065 0 0 1 5.127-27.566 1.75 1.75 0 1 1 3.373.934 162.693 162.693 0 0 0 -5.02 26.982 1.75 1.75 0 0 1 -1.737 1.575z" fill="#ffd845"/><path d="m117.187 70.789c-1.442 8.05-2.572 16.557-3.356 25.3a1.751 1.751 0 0 0 1.586 1.9c.054 0 .106.007.159.007a1.75 1.75 0 0 0 1.741-1.594c.784-8.752 1.917-17.264 3.366-25.3a1.719 1.719 0 0 0 .024-.31z" fill="#ffd845"/></g></svg>