<?xml version="1.0"?>
<svg xmlns="http://www.w3.org/2000/svg" xmlns:xlink="http://www.w3.org/1999/xlink" width="512" height="512" viewBox="0 0 128 128"><defs><linearGradient id="a" x1="127.465" y1="127.51" x2="0.535" y2="0.581" gradientUnits="userSpaceOnUse"><stop offset="0" stop-color="#d7245a"/><stop offset="1" stop-color="#4aceef"/></linearGradient></defs><path d="M8.954,43.049c.769-6.862,1.231-14.041,1.374-21.334a1.75,1.75,0,0,1,3.5.068c-.145,7.4-.614,14.687-1.395,21.655A1.75,1.75,0,0,1,10.7,44.994a1.873,1.873,0,0,1-.2-.011A1.75,1.75,0,0,1,8.954,43.049Zm24.541,58.368a1.75,1.75,0,0,0-1.383,2.053c.3,1.553.579,3.14.822,4.718a1.75,1.75,0,0,0,1.728,1.484,1.619,1.619,0,0,0,.267-.021,1.749,1.749,0,0,0,1.464-1.995c-.249-1.623-.534-3.257-.846-4.856A1.752,1.752,0,0,0,33.495,101.417ZM19.344,80.063a1.75,1.75,0,0,0-1.219,2.154,162.693,162.693,0,0,1,5.02,26.982,1.75,1.75,0,0,0,1.739,1.575c.059,0,.118,0,.178-.009a1.75,1.75,0,0,0,1.565-1.916A166.065,166.065,0,0,0,21.5,81.283,1.749,1.749,0,0,0,19.344,80.063Zm97.961-35.069a1.873,1.873,0,0,0,.2-.011,1.75,1.75,0,0,0,1.544-1.934c-.769-6.862-1.231-14.041-1.374-21.334A1.721,1.721,0,0,0,115.889,20a1.749,1.749,0,0,0-1.716,1.783c.145,7.4.614,14.687,1.395,21.655A1.75,1.75,0,0,0,117.305,44.994Zm-8.649,35.069a1.754,1.754,0,0,0-2.154,1.22,166.065,166.065,0,0,0-5.129,27.566,1.75,1.75,0,0,0,1.565,1.916c.06.006.119.009.178.009a1.75,1.75,0,0,0,1.739-1.575,162.693,162.693,0,0,1,5.02-26.982A1.75,1.75,0,0,0,108.656,80.063ZM128,1.833V126.25a1.751,1.751,0,0,1-1.75,1.75H91.937a1.751,1.751,0,0,1-1.75-1.75,123.339,123.339,0,0,1,12.4-53.711h-.656a7.924,7.924,0,0,1-.726-15.815A78,78,0,0,1,90.464,23.181,104.432,104.432,0,0,1,64,26.508a105.018,105.018,0,0,1-26.468-3.277A78,78,0,0,1,26.8,56.724a7.924,7.924,0,0,1-.726,15.815h-.648A123.364,123.364,0,0,1,32.33,90a1.75,1.75,0,0,1-3.344,1.035,119.82,119.82,0,0,0-7.465-18.5H11.107c1.3,7.534,2.335,15.433,3.062,23.55a1.751,1.751,0,0,1-1.586,1.9c-.054,0-.106.007-.159.007A1.75,1.75,0,0,1,10.683,96.4c-.738-8.236-1.8-16.246-3.124-23.863H3.5V124.5H34.3c-.022-1.514-.073-3.032-.153-4.532a1.75,1.75,0,0,1,3.5-.186c.113,2.141.17,4.317.17,6.468a1.75,1.75,0,0,1-1.75,1.75H1.75A1.751,1.751,0,0,1,0,126.25V1.833c0-.051.011-.1.015-.151S.021,1.6.027,1.563a1.769,1.769,0,0,1,.121-.43l0-.011C.157,1.11.166,1.1.172,1.089A1.756,1.756,0,0,1,.39.745C.412.717.434.689.459.662A1.74,1.74,0,0,1,.788.373C.8.364.818.358.833.349a1.707,1.707,0,0,1,.36-.166c.036-.012.07-.024.107-.034A1.753,1.753,0,0,1,1.75.083h124.5a1.753,1.753,0,0,1,.45.066c.037.01.071.022.107.034a1.707,1.707,0,0,1,.36.166c.015.009.03.015.045.024a1.74,1.74,0,0,1,.329.289c.025.027.047.055.069.083a1.756,1.756,0,0,1,.218.344c.006.012.015.021.021.033l0,.011a1.769,1.769,0,0,1,.121.43c.006.04.008.079.012.119S128,1.782,128,1.833ZM26.072,60.188H3.5v8.851H26.072a4.426,4.426,0,1,0,0-8.851Zm8.02-37.913C18.337,17.556,8.2,10.056,3.5,5.932V56.688H14.46a100.791,100.791,0,0,0,5.49-19.424,1.75,1.75,0,1,1,3.444.619,105.054,105.054,0,0,1-5.169,18.805H22.72A74.492,74.492,0,0,0,34.092,22.275Zm67.933-2.894c-2.647,1.074-5.36,2.011-8.121,2.844A74.49,74.49,0,0,0,105.28,56.688h4.5a105.054,105.054,0,0,1-5.169-18.8,1.75,1.75,0,1,1,3.444-.619,100.791,100.791,0,0,0,5.49,19.424H124.5V5.909a74.062,74.062,0,0,1-11.267,7.98,1.75,1.75,0,0,1-1.762-3.024,71.43,71.43,0,0,0,10.358-7.282H6.2C13.351,9.642,32.689,23.008,64,23.008a100.27,100.27,0,0,0,27.613-3.751h0a90.058,90.058,0,0,0,9.092-3.118,1.75,1.75,0,1,1,1.315,3.243Zm-.1,49.658H124.5V60.188H101.928a4.426,4.426,0,1,0,0,8.851ZM124.5,124.5V72.539h-4.059c-1.328,7.617-2.386,15.627-3.124,23.863A1.75,1.75,0,0,1,115.576,98c-.053,0-.1,0-.159-.007a1.751,1.751,0,0,1-1.586-1.9c.727-8.117,1.765-16.016,3.062-23.55H106.48A119.839,119.839,0,0,0,93.7,124.5Z" fill="url(#a)"/></svg>
