<svg height="512" viewBox="0 0 128 128" width="512" xmlns="http://www.w3.org/2000/svg"><g><g><g fill="#fff16b"><path d="m1.75 70.789v55.461h34.312a121.023 121.023 0 0 0 -13.47-55.461z"/><path d="m1.75 1.833v56.605h21.925a76.128 76.128 0 0 0 12.264-37.489c-22.839-6.516-34.189-19.116-34.189-19.116z"/><path d="m126.25 70.789v55.461h-34.312a121.023 121.023 0 0 1 13.47-55.461z"/><path d="m126.25 1.833v56.6h-21.925a76.121 76.121 0 0 1 -12.264-37.484c22.839-6.516 34.189-19.116 34.189-19.116z"/></g><path d="m64 24.758c-41.625 0-62.25-22.925-62.25-22.925h124.5s-20.625 22.925-62.25 22.925z" fill="#ff7d47"/><path d="m1.75 58.437h24.322a6.176 6.176 0 0 1 6.176 6.176 6.176 6.176 0 0 1 -6.176 6.176h-24.322a0 0 0 0 1 0 0v-12.352a0 0 0 0 1 0 0z" fill="#ff7d47"/><path d="m10.7 44.994a1.873 1.873 0 0 1 -.2-.011 1.75 1.75 0 0 1 -1.544-1.934c.769-6.862 1.231-14.041 1.374-21.334a1.75 1.75 0 0 1 3.5.068c-.145 7.4-.614 14.687-1.395 21.655a1.75 1.75 0 0 1 -1.735 1.556z" fill="#ffd845"/><path d="m21.981 35.851a1.748 1.748 0 0 0 -2.031 1.413 100.167 100.167 0 0 1 -5.919 20.5 1.734 1.734 0 0 0 -.132.669h3.632a104.043 104.043 0 0 0 5.863-20.555 1.75 1.75 0 0 0 -1.413-2.027z" fill="#ffd845"/><path d="m24.884 110.774a1.75 1.75 0 0 1 -1.739-1.575 162.693 162.693 0 0 0 -5.02-26.982 1.75 1.75 0 1 1 3.373-.934 166.065 166.065 0 0 1 5.129 27.566 1.75 1.75 0 0 1 -1.565 1.916c-.062.006-.119.009-.178.009z" fill="#ffd845"/><path d="m7.317 71.1c1.449 8.037 2.583 16.55 3.366 25.3a1.75 1.75 0 0 0 1.741 1.6c.053 0 .105 0 .159-.007a1.751 1.751 0 0 0 1.586-1.9c-.784-8.743-1.914-17.251-3.356-25.3h-3.52a1.736 1.736 0 0 0 .024.307z" fill="#ffd845"/><path d="m95.752 58.437h24.322a6.176 6.176 0 0 1 6.176 6.176 6.176 6.176 0 0 1 -6.176 6.176h-24.322a0 0 0 0 1 0 0v-12.352a0 0 0 0 1 0 0z" fill="#ff7d47" transform="matrix(-1 0 0 -1 222.002 129.226)"/><path d="m117.305 44.994a1.75 1.75 0 0 1 -1.737-1.556c-.781-6.968-1.25-14.254-1.395-21.655a1.749 1.749 0 0 1 1.716-1.783 1.721 1.721 0 0 1 1.783 1.715c.143 7.293.605 14.472 1.374 21.334a1.75 1.75 0 0 1 -1.544 1.934 1.873 1.873 0 0 1 -.197.011z" fill="#ffd845"/><path d="m113.969 57.769a100.167 100.167 0 0 1 -5.919-20.5 1.75 1.75 0 1 0 -3.444.619 104.043 104.043 0 0 0 5.863 20.555h3.631a1.734 1.734 0 0 0 -.131-.674z" fill="#ffd845"/><path d="m103.116 110.774c-.059 0-.118 0-.178-.009a1.75 1.75 0 0 1 -1.565-1.916 166.065 166.065 0 0 1 5.127-27.566 1.75 1.75 0 1 1 3.373.934 162.693 162.693 0 0 0 -5.02 26.982 1.75 1.75 0 0 1 -1.737 1.575z" fill="#ffd845"/><path d="m117.187 70.789c-1.442 8.05-2.572 16.557-3.356 25.3a1.751 1.751 0 0 0 1.586 1.9c.054 0 .106.007.159.007a1.75 1.75 0 0 0 1.741-1.594c.784-8.752 1.917-17.264 3.366-25.3a1.719 1.719 0 0 0 .024-.31z" fill="#ffd845"/></g><g><path d="m10.5 44.983a1.873 1.873 0 0 0 .2.011 1.75 1.75 0 0 0 1.737-1.556c.781-6.968 1.25-14.254 1.395-21.655a1.75 1.75 0 0 0 -3.5-.068c-.143 7.293-.6 14.472-1.374 21.334a1.75 1.75 0 0 0 1.542 1.934z"/><path d="m33.495 101.417a1.75 1.75 0 0 0 -1.383 2.053c.3 1.553.579 3.14.822 4.718a1.75 1.75 0 0 0 1.728 1.484 1.619 1.619 0 0 0 .267-.021 1.749 1.749 0 0 0 1.464-1.995c-.249-1.623-.534-3.257-.846-4.856a1.752 1.752 0 0 0 -2.052-1.383z"/><path d="m19.344 80.063a1.75 1.75 0 0 0 -1.219 2.154 162.693 162.693 0 0 1 5.02 26.982 1.75 1.75 0 0 0 1.739 1.575c.059 0 .118 0 .178-.009a1.75 1.75 0 0 0 1.565-1.916 166.065 166.065 0 0 0 -5.127-27.566 1.749 1.749 0 0 0 -2.156-1.22z"/><path d="m117.305 44.994a1.873 1.873 0 0 0 .2-.011 1.75 1.75 0 0 0 1.544-1.934c-.769-6.862-1.231-14.041-1.374-21.334a1.721 1.721 0 0 0 -1.786-1.715 1.749 1.749 0 0 0 -1.716 1.783c.145 7.4.614 14.687 1.395 21.655a1.75 1.75 0 0 0 1.737 1.556z"/><path d="m108.656 80.063a1.754 1.754 0 0 0 -2.154 1.22 166.065 166.065 0 0 0 -5.129 27.566 1.75 1.75 0 0 0 1.565 1.916c.06.006.119.009.178.009a1.75 1.75 0 0 0 1.739-1.575 162.693 162.693 0 0 1 5.02-26.982 1.75 1.75 0 0 0 -1.219-2.154z"/><path d="m127.985 1.682c0-.04-.006-.079-.012-.119a1.769 1.769 0 0 0 -.121-.43v-.011c-.006-.012-.015-.021-.021-.033a1.756 1.756 0 0 0 -.218-.344c-.022-.028-.044-.056-.069-.083a1.74 1.74 0 0 0 -.329-.289c-.015-.009-.03-.015-.045-.024a1.707 1.707 0 0 0 -.36-.166c-.036-.012-.07-.024-.107-.034a1.753 1.753 0 0 0 -.45-.066h-124.503a1.753 1.753 0 0 0 -.45.066c-.037.01-.071.022-.107.034a1.707 1.707 0 0 0 -.36.166c-.015.009-.033.015-.045.024a1.74 1.74 0 0 0 -.329.289c-.025.027-.047.055-.069.083a1.756 1.756 0 0 0 -.218.344c-.006.011-.015.021-.021.033v.011a1.769 1.769 0 0 0 -.121.43c-.006.04-.008.079-.012.119s-.018.1-.018.151v124.417a1.751 1.751 0 0 0 1.75 1.75h34.312a1.75 1.75 0 0 0 1.75-1.75c0-2.151-.057-4.327-.17-6.468a1.75 1.75 0 0 0 -3.5.186c.08 1.5.131 3.018.153 4.532h-30.795v-51.961h4.059c1.328 7.617 2.386 15.627 3.124 23.861a1.75 1.75 0 0 0 1.741 1.6c.053 0 .105 0 .159-.007a1.751 1.751 0 0 0 1.586-1.9c-.727-8.117-1.765-16.016-3.062-23.55h10.414a119.82 119.82 0 0 1 7.465 18.5 1.75 1.75 0 0 0 3.344-1.043 123.364 123.364 0 0 0 -6.906-17.462h.648a7.924 7.924 0 0 0 .728-15.814 78 78 0 0 0 10.732-33.493 105.018 105.018 0 0 0 26.468 3.277 104.432 104.432 0 0 0 26.464-3.327 78 78 0 0 0 10.736 33.543 7.924 7.924 0 0 0 .726 15.815h.656a123.339 123.339 0 0 0 -12.4 53.711 1.751 1.751 0 0 0 1.75 1.75h34.318a1.751 1.751 0 0 0 1.75-1.75v-124.417c0-.051-.011-.1-.015-.151zm-97.485 62.931a4.431 4.431 0 0 1 -4.426 4.426h-22.574v-8.851h22.572a4.431 4.431 0 0 1 4.428 4.425zm-7.78-7.925h-4.495a105.054 105.054 0 0 0 5.169-18.8 1.75 1.75 0 1 0 -3.444-.619 100.791 100.791 0 0 1 -5.49 19.424h-10.96v-50.761c4.7 4.124 14.837 11.624 30.592 16.343a74.492 74.492 0 0 1 -11.372 34.413zm80.269-39.588a1.75 1.75 0 0 0 -2.279-.964 90.058 90.058 0 0 1 -9.092 3.118 100.27 100.27 0 0 1 -27.618 3.754c-31.311 0-50.649-13.366-57.8-19.425h115.629a71.43 71.43 0 0 1 -10.358 7.282 1.75 1.75 0 0 0 1.762 3.024 74.062 74.062 0 0 0 11.267-7.98v50.779h-10.96a100.791 100.791 0 0 1 -5.49-19.424 1.75 1.75 0 1 0 -3.444.619 105.054 105.054 0 0 0 5.169 18.805h-4.5a74.49 74.49 0 0 1 -11.375-34.463c2.761-.833 5.474-1.77 8.121-2.844a1.749 1.749 0 0 0 .968-2.281zm-5.489 47.513a4.431 4.431 0 0 1 4.426-4.425h22.574v8.851h-22.572a4.431 4.431 0 0 1 -4.428-4.426zm-3.8 59.887a119.839 119.839 0 0 1 12.78-51.961h10.413c-1.3 7.534-2.335 15.433-3.062 23.55a1.751 1.751 0 0 0 1.586 1.9c.054 0 .106.007.159.007a1.75 1.75 0 0 0 1.741-1.594c.738-8.236 1.8-16.246 3.124-23.863h4.059v51.961z"/></g></g></svg>