<?xml version="1.0" encoding="iso-8859-1"?>
<!-- Generator: Adobe Illustrator 19.0.0, SVG Export Plug-In . SVG Version: 6.00 Build 0)  -->
<svg xmlns="http://www.w3.org/2000/svg" xmlns:xlink="http://www.w3.org/1999/xlink" version="1.1" id="Layer_1" x="0px" y="0px" viewBox="0 0 490.005 490.005" style="enable-background:new 0 0 490.005 490.005;" xml:space="preserve" width="512" height="512">
<g>
	<rect x="33.73" y="0.003" style="fill:#223444;" width="422.495" height="468.61"/>
	<path style="fill:#FF4D4D;" d="M206.193,0.002v72.94c0,111.53-90.41,201.94-201.94,201.94c78.53,0,142.18,63.66,142.18,142.18   v55.74H0.003V0.002H206.193z"/>
	<path style="fill:#EA365D;" d="M52.983,445.172c0,12.25-7.09,21.15-17.4,27.63H0.003v-172.46   C52.983,300.342,52.983,400.342,52.983,445.172z"/>
	<path style="fill:#EA365D;" d="M38.754,270.12c-4.143,0-7.5-3.358-7.5-7.5s3.357-7.5,7.5-7.5c9.335,0,27.908-10.89,46.629-34.801   c18.807-24.019,29.592-50.714,29.592-73.24c0-4.142,3.357-7.5,7.5-7.5s7.5,3.358,7.5,7.5c0,25.814-11.948,55.88-32.78,82.487   C73.783,259.467,51.655,270.12,38.754,270.12z"/>
	<path style="fill:#EA365D;" d="M18.653,270.122c-3.447,0-6.551-2.39-7.319-5.895c-0.887-4.046,1.674-8.045,5.72-8.933   c12.182-2.672,32.618-17.89,32.618-89.797c0-4.142,3.357-7.5,7.5-7.5s7.5,3.358,7.5,7.5c0,61.959-15.355,98.077-44.405,104.448   C19.725,270.065,19.185,270.122,18.653,270.122z"/>
	<path style="fill:#EA365D;" d="M0.003,252.622V0.002h30.92l67.08,30.14C98.003,86.012,109.023,252.622,0.003,252.622z"/>
	<path style="fill:#EA365D;" d="M75.591,380.717c-4.143,0-7.5-3.358-7.5-7.5c0-28.354-16.643-75.377-34.36-75.377   c-4.143,0-7.5-3.358-7.5-7.5s3.357-7.5,7.5-7.5c14.504,0,27.383,12.213,37.246,35.32c7.359,17.239,12.114,38.85,12.114,55.057   C83.091,377.359,79.733,380.717,75.591,380.717z"/>
	<path style="fill:#FFE257;" d="M125.825,276.481c0,6.59-2.67,12.55-6.99,16.87c-4.31,4.32-10.28,6.99-16.87,6.99H0.005v-47.72   h101.96C115.145,252.621,125.825,263.301,125.825,276.481z"/>
	<path style="fill:#FFAD42;" d="M83.455,276.481c0,6.59-2.67,12.55-6.99,16.87c-4.32,4.32-10.28,6.99-16.87,6.99H0.005v-47.72h59.59   C72.775,252.621,83.455,263.301,83.455,276.481z"/>
	<path style="fill:#FF4D4D;" d="M490.003,0.002v472.8h-146.44v-55.74c0-62.83,40.75-116.14,97.27-134.94   c14.12-4.7,29.22-7.24,44.91-7.24c-15.85,0-31.27-1.83-46.07-5.28c-89.33-20.85-155.87-100.98-155.87-196.66V0.002H490.003z"/>
	<path style="fill:#EA365D;" d="M451.247,270.12c-12.901,0-35.029-10.654-58.44-40.554c-20.832-26.607-32.78-56.673-32.78-82.487   c0-4.142,3.357-7.5,7.5-7.5s7.5,3.358,7.5,7.5c0,22.526,10.785,49.221,29.592,73.24c18.721,23.911,37.294,34.801,46.629,34.801   c4.143,0,7.5,3.358,7.5,7.5S455.389,270.12,451.247,270.12z"/>
	<path style="fill:#EA365D;" d="M471.346,270.122c-0.532,0-1.072-0.057-1.613-0.176c-29.05-6.371-44.405-42.489-44.405-104.448   c0-4.142,3.357-7.5,7.5-7.5s7.5,3.358,7.5,7.5c0,71.906,20.437,87.125,32.618,89.797c4.046,0.887,6.606,4.887,5.72,8.933   C477.897,267.732,474.793,270.122,471.346,270.122z"/>
	<path style="fill:#EA365D;" d="M414.41,380.717c-4.143,0-7.5-3.358-7.5-7.5c0-16.207,4.755-37.818,12.114-55.057   c9.863-23.106,22.742-35.32,37.246-35.32c4.143,0,7.5,3.358,7.5,7.5s-3.357,7.5-7.5,7.5c-17.718,0-34.36,47.023-34.36,75.377   C421.91,377.359,418.552,380.717,414.41,380.717z"/>
	<path style="fill:#EA365D;" d="M439.673,269.602c-89.33-20.85-155.87-100.98-155.87-196.66V0.002h76.38l-13.34,21.96   C329.453,95.242,324.523,200.882,439.673,269.602z"/>
	<path style="fill:#EA365D;" d="M440.833,282.122l-4.82,18.22c0,0-84.14,66.97-35.17,162.41c1.83,3.57,3.32,6.92,4.46,10.05h-61.74   v-55.74C343.563,354.232,384.313,300.922,440.833,282.122z"/>
	<path style="fill:#EA365D;" d="M0.003,0.002h206.19v60.05c-6.39-8.27-10.19-18.65-10.19-29.91c0,27.06-21.94,49-49,49   c-27.07,0-49-21.94-49-49c0,27.06-21.94,49-49,49c-27.07,0-49-21.94-49-49V0.002z"/>
	<path style="fill:#EA365D;" d="M490.003,0.002v30.14c0,27.06-21.94,49-49,49c-27.07,0-49-21.94-49-49c0,27.06-21.94,49-49,49   c-27.07,0-49-21.94-49-49c0,11.27-3.8,21.65-10.2,29.93V0.002H490.003z"/>
	<path style="fill:#FFAD42;" d="M490.005,252.621v47.72h-101.97c-6.59,0-12.55-2.67-16.87-6.99c-4.32-4.32-6.99-10.28-6.99-16.87   c0-13.18,10.69-23.86,23.86-23.86H490.005z"/>
	<path style="fill:#FFE257;" d="M490.005,252.621v47.72h-69.05c-6.59,0-12.55-2.67-16.87-6.99c-4.32-4.32-6.99-10.28-6.99-16.87   c0-13.18,10.68-23.86,23.86-23.86H490.005z"/>
	<path style="fill:#FFE257;" d="M490,0.003c0,27.062-21.938,49-49,49s-49-21.938-49-49c0,27.062-21.938,49-49,49s-49-21.938-49-49   c0,27.062-21.938,49-49,49s-49-21.938-49-49c0,27.062-21.938,49-49,49s-49-21.938-49-49c0,27.062-21.938,49-49,49s-49-21.938-49-49   "/>
	<rect y="445.171" style="fill:#B5713E;" width="490" height="44.832"/>
</g>















</svg>
