<?xml version="1.0" encoding="iso-8859-1"?>
<!-- Generator: Adobe Illustrator 19.0.0, SVG Export Plug-In . SVG Version: 6.00 Build 0)  -->
<svg xmlns="http://www.w3.org/2000/svg" xmlns:xlink="http://www.w3.org/1999/xlink" version="1.1" id="Layer_1" x="0px" y="0px" viewBox="0 0 505.001 505.001" style="enable-background:new 0 0 505.001 505.001;" xml:space="preserve" width="512" height="512">
<path d="M504.998,117.367c0-4.142-3.357-7.5-7.5-7.5s-7.5,3.358-7.5,7.5v135.25h-10.279c-12.25-3.119-31.89-19.128-31.89-89.623  c0-4.142-3.357-7.5-7.5-7.5s-7.5,3.358-7.5,7.5c0,41.57,6.922,71.486,20.245,88.613c-10.139-3.186-25.494-14.044-40.955-33.791  c-18.807-24.019-29.592-50.714-29.592-73.24c0-4.142-3.357-7.5-7.5-7.5s-7.5,3.358-7.5,7.5c0,25.814,11.948,55.88,32.78,82.487  c8.59,10.97,17.004,19.341,24.856,25.554h-22.297c-30.612-16.103-56.45-40.094-74.776-69.511  c-19.157-30.749-29.282-66.25-29.282-102.667V39.829c0.956-1.365,1.858-2.771,2.692-4.221c9.763,16.955,28.07,28.393,49,28.393  c6.19,0,12.148-1.008,17.726-2.855c-1.058,4.564-1.991,9.021-2.781,13.332c-0.745,4.074,1.953,7.982,6.028,8.727  c0.456,0.083,0.91,0.124,1.358,0.124c3.552,0,6.707-2.533,7.369-6.151c1.493-8.161,3.52-16.879,6.02-25.94  c5.316-4.35,9.832-9.644,13.279-15.63c7.227,12.551,19.139,22.073,33.328,26.175v24.189c0,4.142,3.357,7.5,7.5,7.5  s7.5-3.358,7.5-7.5V63.99c0.224,0.003,0.447,0.011,0.672,0.011c16.391,0,31.167-7.022,41.497-18.208v41.572  c0,4.142,3.357,7.5,7.5,7.5s7.5-3.358,7.5-7.5V7.616c0-0.039,0.003-0.077,0.003-0.115c0-3.366-2.217-6.214-5.271-7.163  C499.025,0.118,498.275,0,497.498,0c-4.143,0-7.5,3.358-7.5,7.5v0.117c-0.063,22.83-18.653,41.384-41.497,41.384  c-22.883,0-41.5-18.617-41.5-41.5c0-4.142-3.357-7.5-7.5-7.5s-7.5,3.358-7.5,7.5c0,22.883-18.617,41.5-41.5,41.5  S309,30.384,309,7.501c0-4.142-3.357-7.5-7.5-7.5s-7.5,3.358-7.5,7.5c0,22.883-18.617,41.5-41.5,41.5S211,30.384,211,7.501  c0-4.142-3.357-7.5-7.5-7.5s-7.5,3.358-7.5,7.5c0,22.883-18.617,41.5-41.5,41.5S113,30.384,113,7.501c0-4.142-3.357-7.5-7.5-7.5  S98,3.359,98,7.501c0,22.883-18.617,41.5-41.5,41.5c-22.844,0-41.434-18.555-41.497-41.384V7.5c0-4.142-3.357-7.5-7.5-7.5  C6.726,0,5.976,0.118,5.271,0.338C2.217,1.287,0,4.135,0,7.501C0,7.54,0.003,7.578,0.003,7.616v444.995  c0,0.02-0.003,0.038-0.003,0.058v44.832c0,4.142,3.357,7.5,7.5,7.5h86.894c4.143,0,7.5-3.358,7.5-7.5s-3.357-7.5-7.5-7.5H15  l0.003-29.832h474.994L490,490.001H124.395c-4.143,0-7.5,3.358-7.5,7.5s3.357,7.5,7.5,7.5H497.5c4.143,0,7.5-3.358,7.5-7.5v-44.832  c0-0.02-0.003-0.038-0.003-0.058V117.367z M489.998,267.618v32.721h-94.459c-9.021,0-16.36-7.339-16.36-16.36  s7.339-16.36,16.36-16.36H489.998z M252.5,64.001c11.573,0,22.34-3.502,31.308-9.495V80.44c0,39.223,10.91,77.468,31.551,110.598  c16.5,26.485,38.655,48.888,64.74,65.66c-9.496,5.396-15.921,15.599-15.921,27.28c0,15.836,11.801,28.96,27.07,31.059  c-30.159,28.12-47.68,67.723-47.68,109.522v20.609H161.434V424.56c0-41.799-17.521-81.402-47.68-109.522  c15.268-2.099,27.07-15.223,27.07-31.059c0-11.681-6.424-21.884-15.921-27.28c26.085-16.772,48.24-39.175,64.74-65.66  c20.641-33.131,31.551-71.375,31.551-110.598V54.507C230.162,60.499,240.928,64.001,252.5,64.001z M15.003,300.339v-32.721h94.46  c9.021,0,16.36,7.339,16.36,16.36s-7.339,16.36-16.36,16.36H15.003z M56.5,64.001c0.225,0,0.448-0.009,0.672-0.011v21.983  c0,4.142,3.357,7.5,7.5,7.5s7.5-3.358,7.5-7.5V61.784c14.189-4.103,26.101-13.624,33.328-26.175  c3.447,5.986,7.963,11.28,13.279,15.63c2.501,9.062,4.528,17.78,6.02,25.939c0.662,3.619,3.817,6.152,7.369,6.152  c0.447,0,0.902-0.04,1.357-0.124c4.075-0.745,6.774-4.652,6.029-8.727c-0.788-4.312-1.721-8.769-2.78-13.333  c5.578,1.848,11.535,2.855,17.725,2.855c20.93,0,39.237-11.438,49-28.393c0.835,1.45,1.737,2.856,2.693,4.222v40.61  c0,36.417-10.125,71.918-29.282,102.667c-18.326,29.417-44.164,53.409-74.776,69.511H79.839  c7.852-6.213,16.266-14.583,24.856-25.554c20.832-26.608,32.78-56.673,32.78-82.487c0-4.142-3.357-7.5-7.5-7.5s-7.5,3.358-7.5,7.5  c0,22.526-10.785,49.221-29.592,73.24c-15.461,19.748-30.817,30.607-40.956,33.792c13.323-17.126,20.245-47.043,20.245-88.613  c0-4.142-3.357-7.5-7.5-7.5s-7.5,3.358-7.5,7.5c0,70.495-19.641,86.504-31.89,89.623H15.003V45.793  C25.333,56.979,40.11,64.001,56.5,64.001z M15.003,315.339h26.228c17.718,0,34.36,47.023,34.36,75.377c0,4.142,3.357,7.5,7.5,7.5  s7.5-3.358,7.5-7.5c0-16.207-4.755-37.818-12.114-55.057c-3.479-8.15-7.335-14.938-11.503-20.32h23.571  c35.034,25.316,55.889,65.963,55.889,109.221v20.609H15.003V315.339z M358.568,445.169V424.56  c0-43.259,20.855-83.906,55.888-109.221h23.571c-4.168,5.382-8.024,12.17-11.504,20.32c-7.358,17.239-12.113,38.85-12.113,55.057  c0,4.142,3.357,7.5,7.5,7.5s7.5-3.358,7.5-7.5c0-28.354,16.643-75.377,34.36-75.377h26.227v129.831H358.568z"/>















</svg>
