<svg height="464pt" viewBox="0 -39 464 463" width="464pt" xmlns="http://www.w3.org/2000/svg"><path d="m0 .5h464v384h-464zm0 0" fill="#143441"/><path d="m160 72.371094s72 48.128906 143.753906-2.398438c-5.742187-22.691406-8.21875-46.082031-7.363281-69.472656h-128.390625s1.601562 43.488281-8 71.871094zm0 0" fill="#d89795"/><path d="m168 40.5s54.695312 32 127.625 0c0 0-.5625-23.34375.375-40h-128c1.074219 13.3125 1.074219 26.6875 0 40zm0 0" fill="#af3e2f"/><path d="m176 .5s16 200-176 200v-200zm0 0" fill="#e1462b"/><path d="m0 200.5s120 40 120 184h-108c-9 1.128906-12-3.585938-12-8zm0 0" fill="#e1462b"/><path d="m464 200.5s-120 40-120 184h108c9 1.128906 12-3.585938 12-8zm0 0" fill="#e1462b"/><path d="m288 .5s-16 200 176 200v-200zm0 0" fill="#e1462b"/><g fill="#af3e2f"><path d="m112 .5s-24 200-112 200v-200zm0 0"/><path d="m0 200.5s56 40 56 184h-56zm0 0"/><path d="m464 200.5s-56 40-56 184h56zm0 0"/><path d="m352 .5s24 200 112 200v-200zm0 0"/></g><path d="m0 .5h56s-24 200-56 200zm0 0" fill="#b11e48"/><path d="m464 .5h-56s24 200 56 200zm0 0" fill="#b11e48"/></svg>