<svg height="480pt" viewBox="0 -40 480 480" width="480pt" xmlns="http://www.w3.org/2000/svg"><path d="m0 0v400h480v-400zm369.207031 16h39.753907c11.480468 89.0625 24.800781 148.585938 39.816406 178.136719-53.203125-27.921875-74.832032-147.441407-79.570313-178.136719zm53.714844 178.558594c-27.761719-5.84375-53.125-19.898438-72.800781-40.335938-44.089844-46.847656-46.707032-117.0625-46.417969-138.222656h49.320313c4.578124 30.878906 22.824218 133.601562 69.898437 178.558594zm-234.242187-132.4375c15.890624 5.4375 32.574218 8.195312 49.367187 8.160156 18.042969-.082031 35.949219-3.085938 53.023437-8.90625.890626 5.601562 1.992188 11.394531 3.386719 17.394531-34.179687 17.894531-74.867187 18.324219-109.417969 1.160157 1.464844-6.128907 2.695313-12.113282 3.640626-17.808594zm100.28125-16.9375c-31.582032 11.914062-66.378907 12.164062-98.128907.710937 1.054688-9.929687 1.542969-19.910156 1.457031-29.894531h95.40625c-.117187 9.742188.304688 19.488281 1.265626 29.183594zm-160 110.046875c-19.59375 19.941406-44.644532 33.644531-72 39.386719 47.429687-45.386719 65.726562-149.488282 70.015624-178.617188h49.320313c.320313 22.089844-2.433594 92.449219-47.351563 139.199219zm-97.679688 38.722656c14.957031-29.609375 28.277344-89.050781 39.765625-177.953125h39.738281c-4.386718 28.257812-26.074218 149.550781-79.503906 177.953125zm7.117188 20.070313c38.589843-3.363282 74.75-20.261719 102.082031-47.710938 18.730469-20.144531 32.535156-44.363281 40.320312-70.746094 18.886719 8.332032 39.277344 12.726563 59.917969 12.914063 20.1875.019531 40.089844-4.753907 58.074219-13.921875 7.660156 26.269531 21.238281 50.433594 39.695312 70.632812 27.292969 28.042969 63.734375 45.375 102.710938 48.855469-36.765625 21.738281-94 71.335937-97.023438 169.953125h-208.367187c-.328125-69.84375-37.3125-134.382812-97.410156-169.976562zm81.425781 169.976562h-47.914063c-1.125-77.769531-18.496094-124.9375-34.269531-151.855469 33.558594 21.863281 79.429687 67.167969 82.183594 151.855469zm322.488281-151.824219c-15.863281 27.023438-33.015625 74.265625-34.152344 151.824219h-48c2.792969-84.632812 48.640625-129.960938 82.152344-151.824219zm21.6875-41.441406c-11.671875-22.382813-27.136719-84.597656-38.894531-174.734375h38.894531zm-409.105469-174.734375c-11.773437 90.144531-27.246093 152.351562-38.894531 174.734375v-174.734375zm-38.894531 212.414062c15.046875 20.480469 38.566406 66.601563 39.910156 155.585938h-39.910156zm408.160156 155.585938c1.375-88.960938 24.800782-135.199219 39.839844-155.609375v155.609375zm0 0"/></svg>