<svg height="512pt" viewBox="0 0 512 512" width="512pt" xmlns="http://www.w3.org/2000/svg"><path d="m488.597656 271.898438-95.695312 240.101562h-30.902344l-30-45h-152l-30 45h-30.601562l-95.996094-240.101562 183.898437-210.898438h97.101563zm0 0" fill="#53433f"/><path d="m488.597656 271.898438-95.695312 240.101562h-30.902344l-30-45h-76v-406h48.402344zm0 0" fill="#3e322e"/><path d="m41.925781 277.445312c-5.132812-2.585937-11.382812-4.632812-18.449219-5.652343l-23.476562 26.910156v198.296875c0 8.289062 6.710938 15 15 15h104.382812c.257813-3.757812.554688-7.34375.601563-11.980469.628906-59.179687-17.605469-192.207031-78.058594-222.574219zm0 0" fill="#cc2e43"/><path d="m488.574219 271.863281c-13.132813 1.863281-25.515625 7.949219-36.53125 18.558594-47.371094 45.632813-63.058594 168.105469-59.152344 221.578125h104.109375c8.289062 0 15-6.710938 15-15v-198.296875zm0 0" fill="#ae2538"/><path d="m362 467v45h-212v-45c0-8.402344 6.597656-15 15-15h182c8.402344 0 15 6.597656 15 15zm0 0" fill="#fdbf00"/><path d="m362 467v45h-106v-60h91c8.402344 0 15 6.597656 15 15zm0 0" fill="#ff9f00"/><path d="m467 61h-162.460938c-8.980468 88.65625 7.257813 154.546875 48.761719 195.851562 39.242188 39.050782 90.480469 45.671876 120.746094 45.671876 14.558594 0 24.257813-1.539063 25.414063-1.726563l12.539062-2.09375v-203.746094zm0 0" fill="#cc2e43"/><path d="m429.9375 202.695312c-34.988281-18.550781-40.183594-72.796874-37.453125-112.339843.570313-8.261719 7.878906-14.398438 16.007813-13.929688 8.265624.570313 14.503906 7.730469 13.933593 16.007813-1.6875 24.207031.152344 72.347656 21.636719 83.804687 7.308594 3.898438 10.078125 12.980469 6.164062 20.289063-3.910156 7.359375-13.042968 10.046875-20.289062 6.167968zm0 0" fill="#ae2538"/><path d="m207.359375 61h-162.359375l-45 33.976562v203.726563l12.539062 2.09375c1.15625.1875 10.855469 1.726563 25.414063 1.726563 30.160156 0 81.167969-6.589844 120.351563-45.292969 41.769531-41.25 58.050781-107.332031 49.054687-196.230469zm0 0" fill="#e63950"/><path d="m61.773438 196.527344c-3.914063-7.308594-1.144532-16.390625 6.164062-20.289063 21.484375-11.457031 23.320312-59.652343 21.636719-83.804687-.570313-8.273438 5.667969-15.4375 13.933593-16.007813 8.230469-.515625 15.421876 5.667969 16.007813 13.929688 2.726563 39.5-2.464844 93.789062-37.453125 112.339843-7.234375 3.875-16.371094 1.203126-20.289062-6.167968zm0 0" fill="#cc2e43"/><path d="m512 15v79.898438c-17.402344-8.097657-24.902344-1.796876-35.097656 7.203124-9.300782 8.398438-21 18.898438-39.902344 18.898438s-30.601562-10.5-39.902344-18.898438c-16.199218-14.101562-24-14.101562-40.199218 0-9.296876 8.398438-21 18.898438-39.898438 18.898438-18.902344 0-31.601562-10.5-40.902344-18.898438-8.097656-6.902343-14.097656-10.503906-20.097656-10.503906s-12 3.601563-20.097656 10.503906c-9.300782 8.398438-22 18.898438-40.902344 18.898438s-30.601562-10.5-39.902344-18.898438c-16.199218-14.101562-24-14.101562-40.199218 0-9.296876 8.398438-21 18.898438-39.898438 18.898438-18.902344 0-30.601562-10.5-39.902344-18.898438-10.195312-9-17.695312-15.300781-35.097656-7.203124v-79.898438c0-8.402344 6.597656-15 15-15h482c8.402344 0 15 6.597656 15 15zm0 0" fill="#ec5569"/><path d="m512 15v79.898438c-17.402344-8.097657-24.902344-1.796876-35.097656 7.203124-9.300782 8.398438-21 18.898438-39.902344 18.898438s-30.601562-10.5-39.902344-18.898438c-16.199218-14.101562-24-14.101562-40.199218 0-9.296876 8.398438-21 18.898438-39.898438 18.898438-18.902344 0-31.601562-10.5-40.902344-18.898438-8.097656-6.902343-14.097656-10.503906-20.097656-10.503906v-91.597656h241c8.402344 0 15 6.597656 15 15zm0 0" fill="#e63950"/></svg>