<svg height="512pt" viewBox="0 0 512 512" width="512pt" xmlns="http://www.w3.org/2000/svg"><path d="m497 0h-482c-8.285156 0-15 6.714844-15 15v482c0 8.285156 6.714844 15 15 15h482c8.285156 0 15-6.714844 15-15 0-14.273438 0-463.605469 0-482 0-8.285156-6.714844-15-15-15zm-104.652344 482h-30.347656v-45c0-8.285156-6.714844-15-15-15h-182c-8.285156 0-15 6.714844-15 15v45h-30.347656c-2.367188-54.671875-16.792969-138.714844-51.054688-181.769531 25.378906-3.832031 55.464844-13.433594 81.601563-35.578125 37.308593-31.601563 57.320312-80.683594 59.582031-146 10.703125-3.53125 18.699219-10.417969 25.511719-16.289063 8.417969-7.257812 13.53125-11.363281 20.707031-11.363281s12.289062 4.105469 20.707031 11.359375c6.8125 5.875 14.8125 12.761719 25.515625 16.289063 2.257813 65.316406 22.269532 114.398437 59.578125 146.003906 26.140625 22.144531 56.226563 31.746094 81.601563 35.578125-34.261719 43.054687-48.6875 127.101562-51.054688 181.769531zm-60.347656 0h-152v-30h152zm-270.222656-285.445312c3.914062 7.300781 13.007812 10.046874 20.308594 6.136718 32.753906-17.550781 38.605468-64.996094 37.859374-101.992187-.015624-.875-.125-1.726563-.285156-2.558594 5.519532-4.601563 9.761719-7.140625 15.339844-7.140625 7.058594 0 11.96875 4.054688 20.042969 11.21875 6.578125 5.839844 14.28125 12.667969 24.722656 16.265625-2.089844 55.945313-18.460937 97.328125-48.757813 123.109375-34.519531 29.378906-79.476562 31.589844-101.007812 30.679688v-174.414063c1.5625 1.289063 3.21875 2.742187 5.042969 4.359375 9.429687 8.367188 21.160156 18.78125 39.957031 18.78125 5.441406 0 10.285156-.875 14.660156-2.320312-1.046875 18.734374-5.125 48.660156-21.746094 57.566406-7.300781 3.914062-10.046874 13.007812-6.136718 20.308594zm368.136718 6.136718c7.304688 3.914063 16.394532 1.164063 20.308594-6.136718 3.910156-7.300782 1.164063-16.394532-6.136718-20.308594-16.78125-8.992188-20.675782-38.347656-21.742188-57.566406 4.371094 1.445312 9.214844 2.320312 14.65625 2.320312 18.796875 0 30.527344-10.414062 39.957031-18.78125 1.824219-1.617188 3.480469-3.070312 5.042969-4.359375v174.460937c-21.421875.964844-66.105469-1.160156-100.808594-30.558593-30.425781-25.769531-46.863281-67.210938-48.957031-123.277344 10.441406-3.597656 18.144531-10.425781 24.722656-16.265625 8.074219-7.164062 12.984375-11.21875 20.042969-11.21875 5.507812 0 9.710938 2.476562 15.125 6.964844-1.1875 38.011718 4.351562 86.808594 37.789062 104.726562zm52.085938-172.691406v33.433594c-10.558594 3.578125-18.328125 10.464844-24.957031 16.347656-8.074219 7.164062-12.984375 11.21875-20.042969 11.21875s-11.96875-4.054688-20.042969-11.21875c-9.429687-8.367188-21.160156-18.78125-39.957031-18.78125s-30.527344 10.414062-39.957031 18.78125c-8.074219 7.164062-12.984375 11.21875-20.042969 11.21875-7.175781 0-12.289062-4.105469-20.707031-11.359375-9.632813-8.304687-21.621094-18.640625-40.292969-18.640625s-30.660156 10.335938-40.292969 18.640625c-8.417969 7.253906-13.53125 11.359375-20.707031 11.359375-7.058594 0-11.96875-4.054688-20.042969-11.21875-9.429687-8.367188-21.160156-18.78125-39.957031-18.78125s-30.527344 10.414062-39.957031 18.78125c-8.074219 7.164062-12.984375 11.21875-20.042969 11.21875s-11.96875-4.054688-20.042969-11.21875c-6.628906-5.882812-14.398437-12.769531-24.957031-16.347656v-33.433594zm-452 452v-176.828125c41.21875 23.511719 57.386719 129.191406 59.625 176.828125zm452 0h-59.625c2.238281-47.640625 18.40625-153.316406 59.625-176.828125zm0 0"/></svg>