<svg height="512pt" viewBox="0 0 512 512" width="512pt" xmlns="http://www.w3.org/2000/svg"><path d="m179.152344 117.976562c-10.027344-3.667968-17.703125-10.074218-24.113282-15.753906-14.289062-12.683594-22.332031-13.46875-35.121093-3.699218 1.273437 37.613281-4.601563 86.539062-37.859375 104.171874-7.230469 3.875-16.367188 1.203126-20.285156-6.167968-3.914063-7.308594-1.144532-16.390625 6.164062-20.289063 16.828125-8.972656 20.589844-38.507812 21.652344-57.734375-4.390625 1.457032-9.121094 2.496094-14.589844 2.496094-18.792969 0-30.527344-10.414062-39.960938-18.777344-10.289062-9.132812-17.550781-15.296875-35.039062-7.246094v173.316407c112.335938 17.570312 174.839844-35.914063 179.152344-150.316407zm0 0"/><path d="m443.457031 300.105469c-93.839843-14.082031-137.644531-85.210938-141.003906-181.582031-10.71875-3.542969-18.714844-10.363282-25.414063-16.304688-16.144531-14.324219-24.9375-14.324219-41.078124 0-6.699219 5.941406-15.695313 12.761719-26.414063 16.304688-3.359375 96.355468-47.152344 167.488281-140.988281 181.582031 16.605468 20.773437 29.992187 53.296875 39.503906 95.46875.214844.972656 15.285156 72.957031 11.273438 116.425781h30.664062v-45c0-8.289062 6.710938-15 15-15h182c8.289062 0 15 6.710938 15 15v45h30.636719c-3.808594-45.542969 9.308593-134.671875 33.773437-184.605469 5.4375-11.105469 11.1875-19.996093 17.046875-27.289062zm0 0"/><path d="m180 482h152v30h-152zm0 0"/><path d="m497 0h-482c-8.289062 0-15 6.710938-15 15v48.402344c24.648438-6.804688 40.355469 3.410156 54.960938 16.375 16.144531 14.328125 23.9375 14.328125 40.078124 0 9.433594-8.363282 21.167969-18.777344 39.960938-18.777344s30.527344 10.414062 39.960938 18.777344c16.144531 14.328125 23.9375 14.328125 40.078124 0 9.433594-8.363282 22.167969-18.777344 40.960938-18.777344s31.527344 10.414062 40.960938 18.777344c16.144531 14.328125 23.9375 14.328125 40.078124 0 9.433594-8.363282 21.167969-18.777344 39.960938-18.777344s30.527344 10.414062 39.960938 18.777344c16.144531 14.328125 23.9375 14.328125 40.078124 0 14.605469-12.964844 30.3125-23.195313 54.960938-16.386719v-48.390625c0-8.289062-6.710938-15-15-15zm0 0"/><path d="m466.550781 318.824219c-33.367187 45.113281-48.347656 145.507812-44.15625 193.175781h74.605469c8.289062 0 15-6.710938 15-15v-198.296875c-28.902344 3.464844-36.410156 7.902344-45.449219 20.121094zm0 0"/><path d="m15 512h74.574219c2.96875-33.382812-5.902344-137.316406-40.296875-187.738281-19.179688-28.101563-33.015625-20.914063-49.277344-25.558594v198.296875c0 8.289062 6.710938 15 15 15zm0 0"/><path d="m476.960938 102.222656c-9.433594 8.363282-21.167969 18.777344-39.960938 18.777344-5.46875 0-10.203125-1.039062-14.59375-2.496094 1.058594 19.105469 4.773438 48.734375 21.652344 57.734375 7.3125 3.898438 10.078125 12.980469 6.167968 20.289063-3.914062 7.355468-13.042968 10.046875-20.289062 6.167968-33.257812-17.632812-39.128906-66.515624-37.859375-104.171874-12.785156-9.773438-20.828125-8.984376-35.117187 3.699218-6.410157 5.683594-14.085938 12.085938-24.113282 15.75 4.1875 111.09375 57.664063 156.667969 162.113282 153.164063l17.039062-2.84375v-173.335938c-17.5-8.070312-24.761719-1.882812-35.039062 7.265625zm0 0"/></svg>