<svg height="384pt" viewBox="0 0 384 384" width="384pt" xmlns="http://www.w3.org/2000/svg"><path d="m368 328v24c0 8.800781-7.199219 16-16 16h-320c-8.800781 0-16-7.199219-16-16v-24c0-8.800781 7.199219-16 16-16h320c8.800781 0 16 7.199219 16 16zm0 0" fill="#4dd0e1"/><path d="m336 256v56h-288v-56h44.238281c10.160157 0 17.761719-9.359375 15.601563-19.359375l-16.558594-77.359375c40.398438-16.882812 68.71875-56.800781 68.71875-103.28125v-40h64v40c0 46.480469 28.320312 86.398438 68.71875 103.28125l-16.558594 77.359375c-2.160156 10 5.441406 19.359375 15.601563 19.359375zm0 0" fill="#e0f7fa"/><g fill="#ff7043"><path d="m336 168v88h-44.238281c-10.160157 0-17.761719-9.359375-15.601563-19.359375l16.558594-77.359375c13.359375 5.597656 27.921875 8.71875 43.28125 8.71875zm0 0"/><path d="m336 128v40c-15.359375 0-29.921875-3.121094-43.28125-8.71875-40.398438-16.882812-68.71875-56.800781-68.71875-103.28125v-40c61.839844 0 112 50.160156 112 112zm0 0"/><path d="m160 16v40c0 46.480469-28.320312 86.398438-68.71875 103.28125-13.359375 5.597656-27.921875 8.71875-43.28125 8.71875v-40c0-61.839844 50.160156-112 112-112zm0 0"/><path d="m107.839844 236.640625c2.160156 10-5.441406 19.359375-15.601563 19.359375h-44.238281v-88c15.359375 0 29.921875-3.121094 43.28125-8.71875zm0 0"/></g><path d="m352 296v-168c0-70.574219-57.425781-128-128-128h-64c-70.574219 0-128 57.425781-128 128v168c-17.648438 0-32 14.351562-32 32v24c0 17.648438 14.351562 32 32 32h320c17.648438 0 32-14.351562 32-32v-24c0-17.648438-14.351562-32-32-32zm-47.335938-116.054688c5.054688 1.277344 10.167969 2.285157 15.335938 2.933594v57.121094l-28.191406-.007812zm15.335938-51.945312v22.558594c-7.199219-1.222656-14.265625-3.167969-21.113281-6.039063-35.765625-14.953125-58.886719-49.695312-58.886719-88.519531v-22.550781c45.328125 7.648437 80 47.078125 80 94.550781zm-176-94.550781v22.550781c0 38.824219-23.121094 73.566406-58.894531 88.519531-6.839844 2.863281-13.90625 4.816407-21.105469 6.039063v-22.558594c0-47.472656 34.671875-86.902344 80-94.550781zm-51.761719 206.550781h-28.238281v-57.121094c5.175781-.65625 10.289062-1.65625 15.351562-2.933594zm-28.238281 32h28.238281c9.714844 0 18.777344-4.335938 24.867188-11.878906 6.101562-7.554688 8.421875-17.335938 6.382812-26.832032l-13.953125-65.152343c40.746094-22.265625 66.464844-64.90625 66.464844-112.136719v-24h32v24c0 47.238281 25.71875 89.878906 66.457031 112.144531l-13.945312 65.128907c-2.046875 9.503906.273437 19.292968 6.375 26.847656 6.097656 7.542968 15.160156 11.878906 24.875 11.878906h28.238281v24h-256zm288 80h-320v-24h320zm0 0" fill="#012e52"/></svg>