<svg height="384pt" viewBox="0 0 384 384" width="384pt" xmlns="http://www.w3.org/2000/svg"><path d="m352 296v-168c0-70.574219-57.425781-128-128-128h-64c-70.574219 0-128 57.425781-128 128v168c-17.648438 0-32 14.351562-32 32v24c0 17.648438 14.351562 32 32 32h320c17.648438 0 32-14.351562 32-32v-24c0-17.648438-14.351562-32-32-32zm-47.34375-116.039062c5.007812 1.269531 10.121094 2.277343 15.34375 2.933593v57.105469l-28.191406-.007812zm15.34375-51.960938v22.550781c-45.328125-7.648437-80-47.078125-80-94.550781v-22.550781c45.328125 7.648437 80 47.078125 80 94.550781zm-176-94.550781v22.550781c0 47.472656-34.671875 86.902344-80 94.550781v-22.550781c0-47.472656 34.671875-86.902344 80-94.550781zm-51.761719 206.550781h-28.238281v-57.113281c5.230469-.65625 10.335938-1.664063 15.351562-2.933594zm-28.238281 32h28.238281c9.714844 0 18.777344-4.335938 24.867188-11.878906 6.101562-7.554688 8.421875-17.335938 6.382812-26.832032l-13.945312-65.121093c39.578125-21.800781 66.457031-63.886719 66.457031-112.167969v-24h32v24c0 48.28125 26.878906 90.367188 66.449219 112.167969l-13.9375 65.097656c-2.046875 9.503906.273437 19.292969 6.375 26.847656 6.097656 7.550781 15.160156 11.886719 24.875 11.886719h28.238281v24h-256zm288 80h-320l-.023438-24h320.023438zm0 0"/></svg>