<svg id="Layer_1" height="512" viewBox="0 0 512 512" width="512" xmlns="http://www.w3.org/2000/svg" data-name="Layer 1"><path d="m455.734 97.374a32.594 32.594 0 1 0 -51.984 35.475l-260.75 319.971v.18h36z" fill="#d4e1f4"/><g fill="#0635c9"><path d="m163.791 87.508h12v313.785h-12z" transform="matrix(.995 -.101 .101 .995 -23.708 18.306)"/><path d="m193.371 98.654h12v269.023h-12z" transform="matrix(.995 -.101 .101 .995 -22.429 21.222)"/><path d="m222.755 105.955h12v228.073h-12z" transform="matrix(.995 -.101 .101 .995 -20.955 24.109)"/><path d="m251.884 108.168h12v192.27h-12z" transform="matrix(.995 -.101 .101 .995 -19.23 26.958)"/><path d="m280.794 106.074h12v160.742h-12z" transform="matrix(.995 -.101 .101 .995 -17.289 29.774)"/><path d="m309.514 100.199h12v133h-12z" transform="matrix(.995 -.101 .101 .995 -15.159 32.561)"/><path d="m338.126 92.179h12v107.413h-12z" transform="matrix(.995 -.101 .101 .995 -12.922 35.331)"/><path d="m366.729 83.995h12v81.983h-12z" transform="matrix(.995 -.101 .101 .995 -10.676 38.101)"/></g><path d="m117.814 453.791 11.842-1.94-69.074-421.574a11.4 11.4 0 0 1 16.8-11.8q5.56 3.087 11.064 6.172c48.387 27.059 94.091 52.617 160.144 57.187 20.464 1.415 42.689-2.212 66.219-6.052 32.142-5.246 65.127-10.618 94.683-2.935-.407.179-.814.357-1.214.549-19.977-1.322-42.5 5.1-68.468 12.524-27.449 7.85-58.558 16.748-90.81 16.748-37.906 0-60.1-8.059-90.813-19.212-3.114-1.132-6.313-2.293-9.619-3.48a37.073 37.073 0 0 0 -49.446 39l37.82 334.522 5.962-.674 4.651 3.79 260.793-319.974a6 6 0 0 0 -.73-8.333 26.59 26.59 0 1 1 37.952-3.29 6.058 6.058 0 0 0 -.469.575l-232.115 323.731 9.752 6.992 231.918-323.456a38.589 38.589 0 0 0 -14.608-60.213c-38.774-23.121-83.707-15.8-127.173-8.708-22.824 3.726-44.381 7.246-63.458 5.925-63.371-4.385-107.935-29.305-155.117-55.689q-5.525-3.09-11.1-6.191a23.4 23.4 0 0 0 -34.46 24.232zm29.45-15.816-36.215-320.347a25.073 25.073 0 0 1 33.469-26.355c3.291 1.181 6.475 2.337 9.576 3.464 31.867 11.572 54.891 19.933 94.906 19.933 33.932 0 65.9-9.143 94.105-17.211 18.778-5.37 35.669-10.187 50.524-11.73a38.531 38.531 0 0 0 2.011 47.507z" fill="#1ae5be"/><path d="m89.826 488h8.174v13a5.731 5.731 0 0 0 5.674 6h34.087a6.21 6.21 0 0 0 6.239-6v-13h60v13a6.171 6.171 0 0 0 6.2 6h35.152a5.714 5.714 0 0 0 5.648-6v-13h8.2a5.988 5.988 0 0 0 5.8-6.174v-28.761a5.893 5.893 0 0 0 -5.8-6.065h-169.374a5.911 5.911 0 0 0 -5.826 6.065v28.761a6.006 6.006 0 0 0 5.826 6.174zm42.174 7h-22v-7h22zm107 0h-23v-7h23zm-143-36h157v17h-157z" fill="#0635c9"/></svg>