<?xml version="1.0"?>
<svg xmlns="http://www.w3.org/2000/svg" id="Layer_1" data-name="Layer 1" viewBox="0 0 512 512" width="512" height="512"><path d="M440.048,72.648c-38.774-23.121-83.707-15.8-127.173-8.708-22.824,3.726-44.381,7.246-63.458,5.925C186.046,65.48,141.482,40.56,94.3,14.176q-5.525-3.09-11.1-6.191a23.4,23.4,0,0,0-34.466,24.2L116.712,447H89.826A5.911,5.911,0,0,0,84,453.065v28.761A6.006,6.006,0,0,0,89.826,488H98v13a5.731,5.731,0,0,0,5.674,6h34.087A6.21,6.21,0,0,0,144,501V488h60v13a6.171,6.171,0,0,0,6.2,6h35.152A5.714,5.714,0,0,0,251,501V488h8.2a5.988,5.988,0,0,0,5.8-6.174V453.065A5.893,5.893,0,0,0,259.2,447H229.371L454.656,132.829a38.557,38.557,0,0,0-14.608-60.181Zm-44.405,60.588-14.279,17.52-6.249-61.845a159.943,159.943,0,0,1,18.517-3.182,38.531,38.531,0,0,0,2.011,47.507ZM148.432,92.685l30.91,305.933-32.078,39.357L111.049,117.628a25.073,25.073,0,0,1,33.469-26.355C145.843,91.749,147.14,92.217,148.432,92.685Zm41.641,292.767L160.952,97.221c6.681,2.409,13.037,4.648,19.327,6.665l26.39,261.2ZM217.4,351.924,192.712,107.57c6.168,1.659,12.448,3.069,19.077,4.188L234,331.562ZM244.727,318.4,224.019,113.427c5.871.618,12.085,1.016,18.771,1.169l18.533,183.438Zm27.328-33.528L254.849,114.574c6.247-.189,12.421-.673,18.513-1.385l15.289,151.317Zm27.327-33.528L285.254,111.509c6.2-1.021,12.3-2.235,18.292-3.583l12.432,123.052Zm27.327-33.528L315.321,105.1c6.192-1.574,12.247-3.236,18.159-4.9l9.825,97.252Zm27.327-33.528L345.2,96.861c6.263-1.79,12.313-3.5,18.144-5.043l7.285,72.1ZM60.582,30.244a11.394,11.394,0,0,1,16.8-11.776q5.56,3.087,11.064,6.177C136.832,51.7,182.536,77.264,248.589,81.834c20.464,1.415,42.689-2.211,66.219-6.051,32.142-5.246,65.127-10.618,94.683-2.935-.407.179-.814.357-1.214.55-19.977-1.323-42.5,5.1-68.468,12.524C312.361,93.772,281.252,102.67,249,102.67c-37.906,0-60.1-8.059-90.813-19.213-3.114-1.131-6.313-2.292-9.619-3.479a37.069,37.069,0,0,0-49.446,38.965L136.215,447h-7.343ZM132,495H110v-7h22Zm107,0H216v-7h23Zm14-19H96V459H253ZM445.57,125.019a5.536,5.536,0,0,0-.469.543L214.606,447H155.335L408.348,136.609a5.96,5.96,0,0,0-.73-8.309,26.585,26.585,0,1,1,37.952-3.281Z"/></svg>
