<svg id="Layer_1" height="512" viewBox="0 0 512 512" width="512" xmlns="http://www.w3.org/2000/svg" xmlns:xlink="http://www.w3.org/1999/xlink" data-name="Layer 1"><linearGradient id="linear-gradient" gradientUnits="userSpaceOnUse" x1="256.003" x2="256.003" y1="485.736" y2="54.924"><stop offset=".322" stop-color="#a163f5"/><stop offset=".466" stop-color="#b074ee"/><stop offset=".752" stop-color="#d8a1dd"/><stop offset=".898" stop-color="#efbad3"/></linearGradient><path d="m440.048 72.648c-38.774-23.121-83.707-15.8-127.173-8.708-22.824 3.726-44.381 7.246-63.458 5.925-63.371-4.385-107.935-29.305-155.117-55.689q-5.525-3.09-11.1-6.191a23.4 23.4 0 0 0 -34.466 24.2l67.978 414.815h-26.886a5.911 5.911 0 0 0 -5.826 6.065v28.761a6.006 6.006 0 0 0 5.826 6.174h8.174v13a5.731 5.731 0 0 0 5.674 6h34.087a6.21 6.21 0 0 0 6.239-6v-13h60v13a6.171 6.171 0 0 0 6.2 6h35.152a5.714 5.714 0 0 0 5.648-6v-13h8.2a5.988 5.988 0 0 0 5.8-6.174v-28.761a5.893 5.893 0 0 0 -5.8-6.065h-29.829l225.285-314.171a38.557 38.557 0 0 0 -14.608-60.181zm-44.405 60.588-14.279 17.52-6.249-61.845a159.943 159.943 0 0 1 18.517-3.182 38.531 38.531 0 0 0 2.011 47.507zm-247.211-40.551 30.91 305.933-32.078 39.357-36.215-320.347a25.073 25.073 0 0 1 33.469-26.355c1.325.476 2.622.944 3.914 1.412zm41.641 292.767-29.121-288.231c6.681 2.409 13.037 4.648 19.327 6.665l26.39 261.2zm27.327-33.528-24.688-244.354c6.168 1.659 12.448 3.069 19.077 4.188l22.211 219.804zm27.327-33.524-20.708-204.973c5.871.618 12.085 1.016 18.771 1.169l18.533 183.438zm27.328-33.528-17.206-170.298c6.247-.189 12.421-.673 18.513-1.385l15.289 151.317zm27.327-33.528-14.128-139.835c6.2-1.021 12.3-2.235 18.292-3.583l12.432 123.052zm27.327-33.528-11.388-112.716c6.192-1.574 12.247-3.236 18.159-4.9l9.825 97.252zm27.327-33.528-8.836-87.427c6.263-1.79 12.313-3.5 18.144-5.043l7.285 72.1zm-293.454-154.044a11.394 11.394 0 0 1 16.8-11.776q5.56 3.087 11.064 6.177c48.386 27.055 94.09 52.619 160.143 57.189 20.464 1.415 42.689-2.211 66.219-6.051 32.142-5.246 65.127-10.618 94.683-2.935-.407.179-.814.357-1.214.55-19.977-1.323-42.5 5.1-68.468 12.524-27.448 7.85-58.557 16.748-90.809 16.748-37.906 0-60.1-8.059-90.813-19.213-3.114-1.131-6.313-2.292-9.619-3.479a37.069 37.069 0 0 0 -49.446 38.965l37.093 328.057h-7.343zm71.418 464.756h-22v-7h22zm107 0h-23v-7h23zm14-19h-157v-17h157zm192.57-350.981a5.536 5.536 0 0 0 -.469.543l-230.495 321.438h-59.271l253.013-310.391a5.96 5.96 0 0 0 -.73-8.309 26.585 26.585 0 1 1 37.952-3.281z" fill="url(#linear-gradient)"/></svg>