<?xml version="1.0"?>
<svg xmlns="http://www.w3.org/2000/svg" xmlns:xlink="http://www.w3.org/1999/xlink" id="Gradient" viewBox="0 0 512 512" width="512" height="512"><defs><linearGradient id="linear-gradient" x1="256" y1="496" x2="256" y2="16" gradientUnits="userSpaceOnUse"><stop offset="0" stop-color="#12c2e9"/><stop offset="0.5" stop-color="#c471ed"/><stop offset="1" stop-color="#f64f59"/></linearGradient></defs><path d="M216,168a8,8,0,1,1,8,8A8,8,0,0,1,216,168Zm-72,8a8,8,0,1,0-8-8A8,8,0,0,0,144,176Zm32,16h16a8,8,0,0,0,0-16h-8v-8a8,8,0,0,0-16,0v16A8,8,0,0,0,176,192ZM344,96a23.992,23.992,0,0,1,32-22.624V24a8,8,0,0,1,8-8h48a8,8,0,0,1,0,16H392V96a24,24,0,0,1-48,0Zm16,0a8,8,0,1,0,8-8A8.009,8.009,0,0,0,360,96Zm128,48v80a24.012,24.012,0,1,1-16-22.624V152H424v72a24.012,24.012,0,1,1-16-22.624V144a8,8,0,0,1,8-8h64A8,8,0,0,1,488,144Zm-80,80a8,8,0,1,0-8,8A8.009,8.009,0,0,0,408,224Zm64,0a8,8,0,1,0-8,8A8.009,8.009,0,0,0,472,224Zm-312,0a24,24,0,1,1,24,24A24.027,24.027,0,0,1,160,224Zm16,0a8,8,0,1,0,8-8A8.009,8.009,0,0,0,176,224Zm247.765,89.775a24,24,0,0,1,0,33.941L416,355.48V488a8,8,0,0,1-16,0V371.371a23.978,23.978,0,0,1-32.8-1.027h0a24.021,24.021,0,0,1-5.421-25.553c-.269-.194-.545-.38-.806-.583-.032-.025-.065-.05-.1-.076L344,330.586V488a8,8,0,0,1-8,8H32a8,8,0,0,1-8-8V312a40.028,40.028,0,0,1,.8-8H24c0-1.911.718-19.625,25.6-52.8,10.167-13.556,13.908-23.607,15.127-30.237A40,40,0,0,1,72,144.805V144a112,112,0,0,1,224,0v.805a39.968,39.968,0,0,1,22.8,64.681c.212.255,25.773,25.093,25.773,25.093a7.968,7.968,0,0,1,1.64,8.916l51.344,63.955c.026.033.051.066.078.1.2.255.383.519.571.782a24.025,24.025,0,0,1,25.563,5.445ZM327.6,240.235l-11.315-11.314-33.941,33.942,11.314,11.314ZM228.556,288h-97.6l15.36,48H211Zm-77.117,64L176.5,430.328,205.15,352ZM88,176a96.108,96.108,0,0,0,96,96,95.1,95.1,0,0,0,65.586-25.9,40.005,40.005,0,0,1,28.255-49.8A96.569,96.569,0,0,0,280,176V156.12c-4.154-2.5-14.039-7.383-33.94-12.359-17.717-4.429-27.763-17.417-33.03-30.617-1.405,2.227-2.966,4.493-4.689,6.733-15,19.5-34.937,27.8-57.656,24.014C115.312,138,94.671,150.6,88,155.7Zm200,35a23.99,23.99,0,0,0-17.171,40.749l33.925-33.925A23.831,23.831,0,0,0,288,211Zm-19.147,61s-10.771-10.438-11.524-11.337A111.984,111.984,0,0,1,241.8,272ZM296,161.376V176a112.926,112.926,0,0,1-1.694,19.5,39.561,39.561,0,0,1,12.042,3.946A23.973,23.973,0,0,0,296,161.376ZM88.274,136.727c12.847-6.743,34.543-13.7,65.041-8.618,16.768,2.793,31.014-3.257,42.344-17.986A82.1,82.1,0,0,0,208.308,85.8,8,8,0,0,1,224,88a61.254,61.254,0,0,0,3.664,18.662c4.368,11.714,11.863,18.974,22.276,21.577a182.655,182.655,0,0,1,29.871,9.823,96,96,0,0,0-191.537-1.335ZM76.592,207.754A111.652,111.652,0,0,1,72,176V161.376a24,24,0,0,0,4.592,46.378ZM62.4,260.8c-3.407,4.543-6.293,8.729-8.744,12.564A39.9,39.9,0,0,1,64,272h62.369a112.769,112.769,0,0,1-43.548-48H80.438C78.715,233.181,73.882,245.49,62.4,260.8ZM328,317.741l-31.083-24.952A7.977,7.977,0,0,1,288,291.147L284.853,288H245.592L183.513,457.748A8,8,0,0,1,176,463h-.165a8,8,0,0,1-7.455-5.561L114.161,288H64a24.027,24.027,0,0,0-24,24V480H328Zm42.834,13.869c.221.171.459.312.691.462L385.5,318.1c-.151-.232-.3-.465-.471-.687L335.165,255.3l-26.448,26.448Zm18.99,27.419L412.45,336.4a8,8,0,1,0-11.312-11.314L378.51,347.716a8,8,0,1,0,11.314,11.313ZM120,408a8,8,0,0,0-8-8H80a8,8,0,0,0,0,16h32A8,8,0,0,0,120,408Z" style="fill:url(#linear-gradient)"/></svg>
