<?xml version="1.0"?>
<svg xmlns="http://www.w3.org/2000/svg" id="Outline" viewBox="0 0 512 512" width="512" height="512"><circle cx="224" cy="168" r="8"/><circle cx="144" cy="168" r="8"/><path d="M176,192h16a8,8,0,0,0,0-16h-8v-8a8,8,0,0,0-16,0v16A8,8,0,0,0,176,192Z"/><path d="M368,120a24.027,24.027,0,0,0,24-24V32h40a8,8,0,0,0,0-16H384a8,8,0,0,0-8,8V73.376A24,24,0,1,0,368,120Zm0-32a8,8,0,1,1-8,8A8.009,8.009,0,0,1,368,88Z"/><path d="M480,136H416a8,8,0,0,0-8,8v57.376A24,24,0,1,0,424,224V152h48v49.376A24,24,0,1,0,488,224V144A8,8,0,0,0,480,136Zm-80,96a8,8,0,1,1,8-8A8.009,8.009,0,0,1,400,232Zm64,0a8,8,0,1,1,8-8A8.009,8.009,0,0,1,464,232Z"/><path d="M184,248a24,24,0,1,0-24-24A24.027,24.027,0,0,0,184,248Zm0-32a8,8,0,1,1-8,8A8.009,8.009,0,0,1,184,216Z"/><path d="M406.794,306.745a23.971,23.971,0,0,0-8.592,1.585c-.188-.263-.373-.527-.571-.782-.027-.032-.052-.065-.078-.1L346.209,243.5a7.968,7.968,0,0,0-1.64-8.916s-25.561-24.838-25.773-25.093A39.968,39.968,0,0,0,296,144.805V144a112,112,0,0,0-224,0v.805a40,40,0,0,0-7.273,76.158c-1.219,6.63-4.96,16.681-15.127,30.237C24.718,284.375,24,302.089,24,304h.8a40.028,40.028,0,0,0-.8,8V488a8,8,0,0,0,8,8H336a8,8,0,0,0,8-8V330.586l16.872,13.545c.031.026.064.051.1.076.261.2.537.389.806.583a24.021,24.021,0,0,0,5.421,25.553h0a23.978,23.978,0,0,0,32.8,1.027V488a8,8,0,0,0,16,0V355.48l7.764-7.764a24,24,0,0,0-16.97-40.971ZM293.657,274.177l-11.314-11.314,33.941-33.942L327.6,240.235ZM211,336H146.319l-15.36-48h97.6Zm-5.852,16L176.5,430.328,151.439,352ZM88,155.7c6.671-5.1,27.312-17.7,62.685-11.807,22.719,3.788,42.658-4.516,57.656-24.014,1.723-2.24,3.284-4.506,4.689-6.733,5.267,13.2,15.313,26.188,33.03,30.617,19.9,4.976,29.786,9.863,33.94,12.359V176a96.569,96.569,0,0,1-2.159,20.3,40.005,40.005,0,0,0-28.255,49.8A95.1,95.1,0,0,1,184,272a96.108,96.108,0,0,1-96-96Zm216.754,62.126-33.925,33.925a23.99,23.99,0,0,1,33.925-33.925ZM241.8,272a111.984,111.984,0,0,0,15.534-11.337c.753.9,11.524,11.337,11.524,11.337ZM312,184a23.889,23.889,0,0,1-5.652,15.445,39.561,39.561,0,0,0-12.042-3.946A112.926,112.926,0,0,0,296,176V161.376A24.039,24.039,0,0,1,312,184ZM184,48a96.119,96.119,0,0,1,95.811,90.062,182.655,182.655,0,0,0-29.871-9.823c-10.413-2.6-17.908-9.863-22.276-21.577A61.254,61.254,0,0,1,224,88a8,8,0,0,0-15.692-2.2,82.1,82.1,0,0,1-12.649,24.321c-11.33,14.729-25.576,20.779-42.344,17.986-30.5-5.084-52.194,1.875-65.041,8.618A96.128,96.128,0,0,1,184,48ZM56,184a24.039,24.039,0,0,1,16-22.624V176a111.652,111.652,0,0,0,4.592,31.754A24.035,24.035,0,0,1,56,184Zm24.438,40h2.383a112.769,112.769,0,0,0,43.548,48H64a39.9,39.9,0,0,0-10.344,1.364c2.451-3.835,5.337-8.021,8.744-12.564C73.882,245.49,78.715,233.181,80.438,224ZM328,480H40V312a24.027,24.027,0,0,1,24-24h50.161l54.22,169.438A8,8,0,0,0,175.836,463H176a8,8,0,0,0,7.512-5.252L245.592,288h39.261L288,291.147a7.977,7.977,0,0,0,8.917,1.642L328,317.741ZM308.717,281.744,335.165,255.3,385.03,317.41c.171.222.32.455.471.687l-13.976,13.975c-.232-.15-.47-.291-.691-.462ZM378.51,359.03a8.01,8.01,0,0,1,0-11.314l22.628-22.628A8,8,0,1,1,412.45,336.4l-22.626,22.627A8.011,8.011,0,0,1,378.51,359.03Z"/><path d="M112,416H80a8,8,0,0,1,0-16h32a8,8,0,0,1,0,16Z"/></svg>
