<?xml version="1.0" encoding="iso-8859-1"?>
<!-- Generator: Adobe Illustrator 19.0.0, SVG Export Plug-In . SVG Version: 6.00 Build 0)  -->
<svg version="1.1" fill="white" id="Capa_1" xmlns="http://www.w3.org/2000/svg" xmlns:xlink="http://www.w3.org/1999/xlink" x="0px" y="0px"
	 viewBox="0 0 511.999 511.999" style="enable-background:new 0 0 511.999 511.999;" xml:space="preserve">
<g>
	<g>
		<path d="M496.015,182.008c0-46.976-11.734-91.594-33.04-125.636C440.222,20.02,409.338,0,376.01,0
			c-33.328,0-64.213,20.02-86.965,56.371c-11.966,19.118-20.911,41.571-26.455,65.904C192.053,126.635,136,185.396,136,257.011
			c0,31.828,11.078,61.115,29.572,84.219l-19.719,19.719l-10.607-10.606c-5.857-5.858-15.356-5.858-21.214,0l-84.855,84.855
			c-17.587,17.585-17.591,46.054,0,63.643c17.546,17.545,46.095,17.546,63.642,0l84.857-84.856c5.855-5.854,5.857-15.358,0-21.214
			l-10.607-10.607l19.719-19.719c23.105,18.494,52.39,29.572,84.218,29.572c5.07,0,10.073-0.291,15.001-0.838v4.992
			c0,52.244,46.097,92.165,97.973,85.013c45.457-6.264,78.11-50.314,72.79-98.193c0.148-5.974-10.082-40.991,15.745-93.364
			C487.888,258.448,496.015,221.234,496.015,182.008z M71.604,477.626c-5.848,5.849-15.366,5.849-21.214,0
			c-5.849-5.849-5.849-15.366,0-21.215l74.249-74.249l21.215,21.214L71.604,477.626z M286.007,360.939
			c-4.901,0.704-9.907,1.076-15.001,1.076c-57.899,0-105.004-47.105-105.004-105.004c-0.001-53.337,39.973-97.512,91.536-104.143
			c-1.01,9.56-1.532,19.297-1.532,29.14c0,33.402,6.043,65.966,17.478,94.171c8.427,20.786,12.524,39.72,12.524,57.882V360.939z
			 M301.286,264.906c-9.996-24.658-15.28-53.324-15.28-82.899c-0.001-9.768,0.585-19.354,1.688-28.668
			c49.996,8.019,88.316,51.452,88.316,103.672c0,41.804-24.558,77.976-60.003,94.859v-17.81
			C316.008,311.96,311.193,289.34,301.286,264.906z M445.606,276.356c-30.033,60.906-18.496,103.696-18.655,109.947
			c3.541,31.864-17.574,61.094-47.068,65.16c-35.144,4.84-63.876-22.475-63.876-55.293v-11.875
			c52.382-18.575,90.004-68.614,90.004-127.283c0-66.91-48.929-122.596-112.885-133.183c13.832-54.51,46.218-93.826,82.882-93.826
			c48.787,0,90.004,69.61,90.004,152.006C466.013,216.657,458.956,249.282,445.606,276.356z"/>
	</g>
</g>
<g>
</g>
<g>
</g>
<g>
</g>
<g>
</g>
<g>
</g>
<g>
</g>
<g>
</g>
<g>
</g>
<g>
</g>
<g>
</g>
<g>
</g>
<g>
</g>
<g>
</g>
<g>
</g>
<g>
</g>
</svg>
