<?xml version="1.0" encoding="iso-8859-1"?>
<!-- Generator: Adobe Illustrator 19.0.0, SVG Export Plug-In . SVG Version: 6.00 Build 0)  -->
<svg version="1.1" fill="white" id="Capa_1" xmlns="http://www.w3.org/2000/svg" xmlns:xlink="http://www.w3.org/1999/xlink" x="0px" y="0px"
	 viewBox="0 0 512 512" style="enable-background:new 0 0 512 512;" xml:space="preserve">
<g>
	<g>
		<path d="M255.49,122.007c-74.447,0-135.008,60.56-135.008,135.008c0,31.815,11.518,60.702,29.995,83.801l-20.143,20.143
			l-10.614-10.614c-5.625-5.625-15.587-5.625-21.212,0l-84.849,84.863c-17.55,17.55-17.55,46.087,0,63.637
			c17.533,17.532,46.087,17.55,63.637,0l84.863-84.849c5.859-5.859,5.856-15.356,0-21.212l-10.614-10.614l20.143-20.143
			c23.098,18.478,51.987,29.996,83.802,29.996c74.447,0,135.008-60.56,135.008-135.008S329.937,122.007,255.49,122.007z"/>
	</g>
</g>
<g>
	<g>
		<path d="M511.503,182.011C511.504,81.077,457.796,0,390.498,0c-46.061,0-85.266,39.066-105.436,94.807
			c76.901,13.994,135.438,81.329,135.438,162.207c0,74.59-49.782,137.705-117.841,158.055c8.853,39.218,43.436,66.944,83.854,66.944
			c52.787,0,90.415-47.955,84.746-99.015c0.134-5.425-9.764-41.626,15.733-93.359C502.373,258.451,511.503,221.242,511.503,182.011z
			"/>
	</g>
</g>
<g>
</g>
<g>
</g>
<g>
</g>
<g>
</g>
<g>
</g>
<g>
</g>
<g>
</g>
<g>
</g>
<g>
</g>
<g>
</g>
<g>
</g>
<g>
</g>
<g>
</g>
<g>
</g>
<g>
</g>
</svg>
